<svg width="50" height="50" fill="none" xmlns="http://www.w3.org/2000/svg"><path d="M2.83 27.57l20.464 11.89c.612.382 1.334-.06 1.793-.724.242-.383.375-.796.375-1.174-.007-.54.402-1.249.878-1.519.293-.169.415-.122.415.224 0 .424.173.77.478.946.305.178.695.158 1.069-.056l5.208-3.005c.576-.316 1.084-1.124 1.084-1.863-.006-.546.395-1.242.88-1.521.156-.09.276-.104.321-.08.045.026.092.136.092.314 0 .426.176.77.483.946.31.176.697.152 1.065-.066l5.217-3.01c.613-.355 1.075-1.155 1.075-1.86 0-.538.406-1.247.867-1.516.293-.169.42-.114.425.233 0 .898.78 1.333 1.545.881.604-.345 1.078-1.16 1.078-1.853v-.005c-.01-1.015-.395-1.808-1.059-2.198-.095-.104-20.373-11.836-20.49-11.904-.684-.393-1.558-.324-2.46.198-1.275.734-2.382 2.274-2.815 3.878l-2.96 1.714-.887-.516c-.682-.391-1.58-.317-2.46.198-1.283.733-2.394 2.276-2.826 3.887l-2.959 1.705-.886-.516c-.683-.391-1.58-.318-2.46.198-1.704.977-3.032 3.275-3.021 5.23 0 .421.17.764.471.944zm43.26-1.776c-.058.035-.099.047-.11.057a.395.395 0 01-.018-.128c-.014-1.063-.898-1.585-1.841-1.043-.763.445-1.338 1.448-1.338 2.332 0 .37-.283.859-.603 1.044l-5.221 3.012c-.059.035-.1.047-.113.056a.377.377 0 01-.016-.122c0-.512-.206-.925-.566-1.132-.36-.207-.822-.176-1.264.082-.78.449-1.36 1.46-1.349 2.343 0 .366-.304.87-.604 1.034l-5.216 3.01c-.061.035-.104.047-.116.055a.395.395 0 01-.017-.127c0-1.07-.892-1.581-1.827-1.043-.77.438-1.363 1.47-1.352 2.344 0 .191-.083.433-.218.647-.123.175-.298.368-.501.438l-.002-.005a.368.368 0 01-.015-.118c0-.23.025-.46.078-.718.266-1.485 1.318-3.033 2.468-3.703.825-.471 1.714-.47 1.994.448.09.295.43.414.684.271 4.075-2.372 3.776-2.188 3.792-2.198.11-.07.19-.177.227-.302.337-1.424 1.34-2.856 2.441-3.487.807-.478 1.683-.473 1.992.452a.472.472 0 00.687.257l3.797-2.196a.568.568 0 00.223-.3 5.904 5.904 0 011.375-2.594 4.611 4.611 0 011.056-.89c1.113-.651 2.085-.346 2.101 1.189 0 .362-.288.852-.608 1.035zM24.105 11.665c.599-.346 1.138-.415 1.517-.198l18.994 11.044c-1.454.58-2.67 2.189-3.193 3.723l-19.657-11.42c.397-1.303 1.325-2.565 2.339-3.149zm-5.306 5.32l2.418-1.4 19.55 11.36-2.658 1.533a1.657 1.657 0 00-.705-.672L18.799 16.985zm-3.815-.047c.585-.343 1.138-.414 1.515-.198l18.988 11.043c-.164.065-.33.147-.495.245-1.218.697-2.245 2.138-2.71 3.481L12.633 20.096c.396-1.307 1.327-2.573 2.351-3.158zm-5.315 5.32l2.415-1.39L31.62 32.215l-2.63 1.534-.015-.01a5.043 5.043 0 00-.323-.39c-.219-.206 1.073.581-18.983-11.09zm-3.817-.047c.362-.212.712-.32 1.016-.32a1 1 0 01.5.123l18.985 11.04c-.16.062-.327.141-.496.238-1.409.821-2.612 2.612-2.922 4.34-.034.16-.059.322-.075.485L3.33 26.776a.315.315 0 01-.027-.153c-.009-1.595 1.156-3.614 2.549-4.412z" fill="#fff"/></svg>