<svg width="50" height="50" fill="none" xmlns="http://www.w3.org/2000/svg"><g clip-path="url(#clip0_69_342)" fill="#fff"><path d="M27.5 25a2.5 2.5 0 10-5 0 2.5 2.5 0 005 0zm-2.5.833a.834.834 0 110-1.667.834.834 0 010 1.667z"/><path d="M43.566 32.833l-12.75-7.365c.012-.153.021-.308.021-.47a5.833 5.833 0 00-1.45-3.832A13.776 13.776 0 0030.834 15c0-5.667-3.575-10.834-7.5-10.834A.833.833 0 0022.5 5v14.742a5.849 5.849 0 00-3.017 3.38 13.764 13.764 0 00-6.059 1.824c-.03.017-.06.038-.09.056a11.664 11.664 0 016.106-10.259l-.796-1.464a13.333 13.333 0 00-6.977 11.72c0 .372.025.738.055 1.102A13.56 13.56 0 009.518 28.3a15.817 15.817 0 019.859-18.107l-.592-1.558c-8.64 3.287-13.238 12.724-10.5 21.554-.088.166-.181.333-.262.5-1.079 2.307-1.162 4.555-.229 6.167a.834.834 0 001.139.304l2.333-1.348c5.368 6.843 14.952 8.696 22.484 4.346l-.833-1.441a15.823 15.823 0 01-20.196-3.74l2.203-1.272A13.315 13.315 0 0029.373 37.6l-.546-1.576a11.64 11.64 0 01-12.43-3.166l5.309-3.066A5.814 5.814 0 0025 30.832a5.92 5.92 0 001.133-.123 13.813 13.813 0 004.61 4.345 13.496 13.496 0 006.678 1.844c.333 0 .667-.013 1-.042 2.537-.219 4.526-1.27 5.456-2.883a.835.835 0 00-.31-1.14zm-19.4-26.878c2.47.705 5 4.408 5 9.045a12.18 12.18 0 01-1.082 5.047 5.733 5.733 0 00-.634-.334c-.053-.025-.107-.048-.16-.072a5.975 5.975 0 00-.666-.242h-.009a5.71 5.71 0 00-.883-.174 5.887 5.887 0 00-.732-.059c-.279 0-.558.02-.833.06V5.955zM8.93 35.242a5.376 5.376 0 01.223-2.868c.333.718.715 1.412 1.143 2.078l-1.366.79zm2.808-1.622a15.788 15.788 0 01-1.62-3.27 11.56 11.56 0 011.916-2.308c.36 1.543.993 3.01 1.869 4.33l-2.165 1.248zm3.606-2.083a11.587 11.587 0 01-1.846-4.667 12.179 12.179 0 015.67-2.061v.19c.002.292.027.583.073.87a5.958 5.958 0 00.244 1.023c.011.031.026.061.038.093.088.242.194.479.314.707.03.058.058.115.09.172.138.244.293.479.464.701.01.014.017.029.027.042l-5.074 2.93zm6.95-3.37A4.177 4.177 0 0120.832 25a4.164 4.164 0 013.386-4.086c.093-.017.188-.027.282-.038a4.26 4.26 0 01.323-.028c.11-.005.23 0 .346 0 .115 0 .205.017.308.028.235.028.468.076.696.142.07.02.141.035.21.06.113.038.22.09.333.138.11.047.216.101.32.16a4.072 4.072 0 011.776 1.943 4.16 4.16 0 01.285 2.443 4.165 4.165 0 01-6.805 2.404zm15.98 7.029a11.739 11.739 0 01-6.695-1.584 12.222 12.222 0 01-3.822-3.469c.053-.029.098-.07.15-.099a5.81 5.81 0 00.56-.368c.076-.055.152-.11.225-.166.214-.175.416-.365.603-.568.02-.021.044-.04.063-.062.204-.232.389-.48.554-.74.042-.067.077-.136.117-.204.12-.204.227-.415.32-.632.02-.047.05-.087.069-.134l11.487 6.633a6.04 6.04 0 01-3.63 1.393z"/><path d="M25 0C11.193 0 0 11.193 0 25s11.193 25 25 25 25-11.193 25-25C49.985 11.2 38.8.015 25 0zm0 48.333C12.114 48.333 1.667 37.886 1.667 25S12.114 1.667 25 1.667 48.333 12.114 48.333 25C48.32 37.88 37.88 48.319 25 48.333z"/><path d="M40.833 25c0 1.072-.108 2.141-.322 3.192l1.634.333A17.53 17.53 0 0033.75 9.842l-.833 1.441A15.897 15.897 0 0140.833 25z"/><path d="M36.667 25h1.666a13.349 13.349 0 00-4.444-9.938l-1.111 1.242A11.684 11.684 0 0136.667 25z"/></g><defs><clipPath id="clip0_69_342"><path fill="#fff" d="M0 0h50v50H0z"/></clipPath></defs></svg>