<svg width="50" height="50" fill="none" xmlns="http://www.w3.org/2000/svg"><g clip-path="url(#clip0_69_382)" stroke="#fff" stroke-miterlimit="10" stroke-linecap="round" stroke-linejoin="round"><path d="M40.137 49.268H1.123a.39.39 0 01-.39-.391V33.935a.39.39 0 01.39-.39h2.376m43.034 0h2.344a.39.39 0 01.39.39v14.942a.39.39 0 01-.39.39H43.49"/><path d="M3.662 27.875v-1.308c0-.38.308-.688.688-.688h41.3c.38 0 .688.308.688.688v19.157a.688.688 0 01-.688.688H4.35a.687.687 0 01-.688-.688V31.41"/><path d="M11.386 25.543V.733H6.672v24.81m-.097 7.704c.215.937.763 1.808 1.561 2.345 1.424.956 3.534.633 4.666-.655 1.132-1.289 1.206-3.36.233-4.773-.867-1.26-3.03-2.325-4.56-1.676-1.6.678-2.249 3.234-1.9 4.759zm9.49 3.772c.162 1.016.745 1.916 1.431 2.662.592.642 1.286 1.205 2.088 1.498.802.293 1.724.289 2.453-.147.712-.426 1.177-1.228 1.324-2.076.148-.85.002-1.738-.302-2.547-.469-1.247-1.354-2.367-2.533-2.883-2.217-.969-4.877.886-4.461 3.493zm12.537-.634c.118-1.395 1.103-2.7 2.44-3.117 1.336-.417 2.936.137 3.66 1.335.317.522.467 1.162.322 1.754-.215.877-1 1.476-1.733 2.002-.769.55-2.21 1.91-3.21 1.438-1.07-.505-1.569-2.36-1.48-3.412zm.576-8.12a7.624 7.624 0 01-2.567 2.605c-.531.325-1.138.59-1.758.53-1.216-.122-2.364-1.331-3.1-2.22-.666-.804-1.398-2.128-1.319-3.301h9.224c.221.752-.058 1.674-.48 2.385zm12.81 18.147h-8.386a2.427 2.427 0 01.016-.906c.33-1.812 1.674-3.477 3.377-4.172.934-.385 2.06-.492 2.91.052.692.445 1.072 1.232 1.413 1.981.434.955.854 2.06.67 3.045zm-27.351 0H7.755c-.248-.544-.286-1.194-.203-1.796.22-1.582 1.378-3.14 2.965-3.318 1.35-.15 2.66.738 3.344 1.912.466.801.941 2.126.776 3.202zM41.85 30.728c-.824 1.094-2.217 1.87-3.554 1.57-1.585-.355-2.548-2.17-2.318-3.778.111-.772.571-1.807 1.213-2.641h4.95c.386.554.63 1.209.67 1.85.066 1.07-.314 2.144-.96 3zM29.222 46.412h-7.966c.007-.188.047-.373.117-.547.217-.528.697-.896 1.166-1.222a29.575 29.575 0 012.775-1.717c.786-.43 1.711-.831 2.548-.514.615.233 1.043.825 1.226 1.456.193.665.255 1.61.134 2.544zM46.338 34.41v5.777c-.289.09-.591.132-.898.118-.96-.046-1.819-.584-2.627-1.104-.472-.305-.961-.627-1.246-1.112-.44-.752-.263-1.766.287-2.443.55-.679 1.403-1.054 2.264-1.195.723-.12 1.438-.156 2.157-.052a.701.701 0 01.063.01z"/><path d="M6.932 2.67l4.244 3.345L6.932 9.77l4.244 3.389-4.244 3.54 4.244 2.833-4.244 3.482m36.396 2.529V.733h-4.714v24.81"/><path d="M38.874 2.67l4.244 3.345-4.244 3.755 4.244 3.389-4.244 3.54 4.244 2.834-4.244 3.482"/></g><defs><clipPath id="clip0_69_382"><path fill="#fff" d="M0 0h50v50H0z"/></clipPath></defs></svg>