<svg width="50" height="50" fill="none" xmlns="http://www.w3.org/2000/svg"><path fill-rule="evenodd" clip-rule="evenodd" d="M13.643 12.197a.48.48 0 01-.333-.829c1.153-1.106.672-1.769-.057-2.773-.719-.99-1.704-2.347.057-4.034a.481.481 0 11.667.696c-1.154 1.105-.672 1.768.056 2.772.72.991 1.704 2.347-.057 4.035a.48.48 0 01-.333.133zm5.678 0a.476.476 0 01-.448-.307.481.481 0 01.115-.522c1.153-1.106.672-1.769-.056-2.773-.72-.99-1.705-2.347.056-4.034a.482.482 0 11.666.696c-1.153 1.105-.671 1.768.058 2.772.718.991 1.703 2.347-.058 4.035a.48.48 0 01-.333.133zm5.68 0a.481.481 0 01-.335-.829c1.153-1.106.672-1.769-.056-2.773-.72-.99-1.704-2.347.056-4.034a.483.483 0 01.667.696c-1.153 1.105-.672 1.768.057 2.772.718.991 1.703 2.347-.057 4.035a.48.48 0 01-.333.133zm5.677 0a.48.48 0 01-.333-.829c1.153-1.106.672-1.769-.057-2.773-.72-.99-1.704-2.347.057-4.034a.481.481 0 11.667.696c-1.154 1.105-.673 1.768.055 2.772.72.991 1.705 2.347-.055 4.035a.481.481 0 01-.334.133zm5.678 0a.476.476 0 01-.448-.307.481.481 0 01.115-.522c1.153-1.106.672-1.769-.056-2.773-.72-.99-1.705-2.347.056-4.034a.482.482 0 11.667.696c-1.154 1.105-.672 1.768.057 2.772.718.991 1.703 2.347-.058 4.035a.479.479 0 01-.333.133zm-24.39 4.009a.901.901 0 00-.9.9v26.602a.9.9 0 00.9.901h26.599a.902.902 0 00.9-.901V17.106a.9.9 0 00-.9-.9h-26.6zm26.599 29.367h-26.6a1.868 1.868 0 01-1.864-1.865V17.106c0-1.028.837-1.864 1.865-1.864h26.599c1.028 0 1.864.836 1.864 1.864v26.602a1.867 1.867 0 01-1.864 1.865z" fill="#fff"/><path fill-rule="evenodd" clip-rule="evenodd" d="M14.778 20.117a.784.784 0 00-.782.785v19.01c0 .433.35.785.781.785a.785.785 0 00.784-.785v-19.01a.785.785 0 00-.783-.785zm0 21.544a1.749 1.749 0 01-1.746-1.749v-19.01a1.75 1.75 0 011.745-1.75 1.75 1.75 0 011.747 1.75v19.01c0 .965-.783 1.75-1.746 1.749zm5.244-21.544a.785.785 0 00-.783.785v19.01c0 .433.351.785.783.785a.785.785 0 00.782-.785v-19.01a.785.785 0 00-.782-.785zm0 21.544a1.75 1.75 0 01-1.747-1.749v-19.01a1.75 1.75 0 011.747-1.75 1.75 1.75 0 011.745 1.75v19.01c0 .965-.782 1.75-1.745 1.749zm5.243-21.544a.784.784 0 00-.782.785v19.01a.785.785 0 00.782.785.784.784 0 00.782-.785v-19.01a.784.784 0 00-.782-.785zm0 21.544a1.749 1.749 0 01-1.746-1.749v-19.01a1.75 1.75 0 011.746-1.75 1.75 1.75 0 011.746 1.75v19.01c0 .965-.783 1.75-1.746 1.749zm5.243-21.544a.785.785 0 00-.782.785v19.01c0 .433.352.785.782.785a.785.785 0 00.783-.785v-19.01a.785.785 0 00-.783-.785zm0 21.544a1.749 1.749 0 01-1.745-1.749v-19.01a1.75 1.75 0 011.745-1.75 1.75 1.75 0 011.747 1.75v19.01a1.75 1.75 0 01-1.747 1.749zm5.245-21.544a.785.785 0 00-.783.785v19.01c0 .433.35.785.783.785a.785.785 0 00.782-.785v-19.01a.785.785 0 00-.782-.785zm0 21.544a1.75 1.75 0 01-1.747-1.749v-19.01a1.75 1.75 0 011.747-1.75 1.75 1.75 0 011.746 1.75v19.01c0 .965-.784 1.75-1.746 1.749zm-25.17-24.073H6.882a.482.482 0 010-.964h3.702a.482.482 0 010 .964zm32.535 0h-3.171a.482.482 0 010-.964h3.171a.481.481 0 110 .964zm-32.535 2.804H6.881a.482.482 0 010-.964h3.702a.482.482 0 010 .964zm32.535 0h-3.171a.482.482 0 010-.964h3.171a.48.48 0 110 .964z" fill="#fff"/><path fill-rule="evenodd" clip-rule="evenodd" d="M5.43 16.971a1.54 1.54 0 00-1.537 1.536 1.54 1.54 0 001.536 1.537 1.538 1.538 0 001.536-1.537 1.538 1.538 0 00-1.535-1.536zm0 4.037a2.503 2.503 0 01-2.5-2.5c0-1.38 1.121-2.5 2.5-2.5a2.501 2.501 0 012.499 2.5c0 1.379-1.12 2.5-2.5 2.5zm39.14-4.037a1.538 1.538 0 00-1.536 1.536 1.539 1.539 0 001.536 1.537 1.539 1.539 0 001.537-1.537 1.538 1.538 0 00-1.537-1.536zm0 4.037a2.503 2.503 0 01-2.5-2.5c0-1.38 1.121-2.5 2.5-2.5 1.378 0 2.5 1.12 2.5 2.5 0 1.379-1.122 2.5-2.5 2.5zM10.584 41.386H6.88a.482.482 0 110-.964h3.702a.482.482 0 010 .964zm32.534 0h-3.171a.482.482 0 010-.964h3.171a.48.48 0 110 .964zM10.583 44.19H6.881a.482.482 0 010-.964h3.702a.482.482 0 110 .964zm32.535 0h-3.171a.482.482 0 010-.964h3.171a.48.48 0 110 .964z" fill="#fff"/><path fill-rule="evenodd" clip-rule="evenodd" d="M5.43 40.77a1.54 1.54 0 00-1.537 1.537 1.539 1.539 0 001.536 1.536 1.538 1.538 0 001.086-2.622 1.538 1.538 0 00-1.085-.451zm0 4.036a2.503 2.503 0 01-2.5-2.5c0-1.378 1.121-2.5 2.5-2.5a2.5 2.5 0 01-.001 5zm39.14-4.036a1.539 1.539 0 00-1.536 1.537 1.539 1.539 0 001.536 1.536 1.538 1.538 0 001.537-1.536 1.539 1.539 0 00-1.537-1.537zm0 4.036a2.503 2.503 0 01-2.5-2.5c0-1.378 1.121-2.5 2.5-2.5 1.378 0 2.5 1.122 2.5 2.5 0 1.38-1.122 2.5-2.5 2.5z" fill="#fff"/></svg>