<svg width="50" height="50" fill="none" xmlns="http://www.w3.org/2000/svg"><path d="M9.902 7.227h.4a.684.684 0 000-1.368h-2.05c-.014 0-.028.004-.042.005a.515.515 0 00-.046.004c-.015.002-.03.002-.045.005l.002.006c-.044.009-.088.015-.13.033a.684.684 0 00-.423.631v2.051a.684.684 0 001.368 0v-.4l2.25 2.25a.681.681 0 00.967 0 .683.683 0 000-.966l-2.25-2.251zm1.285 32.329l-2.251 2.25v-.4a.684.684 0 00-1.368 0v2.051a.684.684 0 00.684.684h2.05a.684.684 0 000-1.368h-.4l2.25-2.25a.684.684 0 00-.965-.967zm8.886-8.252a.678.678 0 01-.2-.483V19.179a.68.68 0 01.2-.483l3.301-3.3c.387-.388.6-.903.6-1.451V9.96c0-.754-.613-1.367-1.367-1.367h-4.101c-.754 0-1.367.613-1.367 1.367v1.72a.678.678 0 01-.2.483l-3.301 3.3c-.388.387-.6.903-.6 1.45v16.172c0 .548.212 1.063.6 1.45l3.3 3.3c.13.13.2.302.2.484v1.72a1.37 1.37 0 001.368 1.367h4.101a1.37 1.37 0 001.368-1.368v-3.984c0-.548-.214-1.063-.6-1.45l-3.302-3.3zm-1.567 8.735v-1.72a2.04 2.04 0 00-.6-1.45l-3.301-3.3a.678.678 0 01-.2-.483V16.914c0-.182.07-.354.2-.483l3.3-3.3c.388-.388.6-.903.6-1.451V9.96h4.102v3.985a.678.678 0 01-.2.483l-3.3 3.301a2.034 2.034 0 00-.601 1.45v11.642c0 .548.213 1.062.6 1.45l3.301 3.3c.13.13.2.302.2.484l.001 3.984h-4.102zM3.809 3.125a.684.684 0 00-.684.684V46.19a.684.684 0 001.367 0V3.81a.683.683 0 00-.683-.684z" fill="#fff"/><path d="M42.773 40.38h-7.177a2.738 2.738 0 01-2.735-2.733v-6.215a4.105 4.105 0 003.418-4.04v-4.785a4.106 4.106 0 00-4.101-4.101h-2.735V3.809a.684.684 0 00-1.367 0v14.697h-4.785c-1.131 0-2.05.92-2.05 2.05v8.887c0 1.131.919 2.051 2.05 2.051h4.785v14.697a.684.684 0 001.367 0V31.494h2.051v6.153a4.106 4.106 0 004.102 4.101h7.177a2.738 2.738 0 012.735 2.734v1.71a.684.684 0 001.367 0v-1.71a4.106 4.106 0 00-4.102-4.101zM23.291 30.128a.684.684 0 01-.684-.684v-8.886c0-.377.307-.684.684-.684h4.785v2.05h-2.05a.684.684 0 000 1.368h2.05v3.418h-2.05a.684.684 0 000 1.367h2.05v2.051h-4.785zm6.152-10.254h2.735a2.738 2.738 0 012.734 2.734v4.786a2.738 2.738 0 01-2.734 2.734h-2.735V19.873zm-21.05-3.56a.683.683 0 00-.966 0L6.06 17.682a.684.684 0 00-.149.745c.008.018.021.032.03.05h-.003c.006.012.017.022.023.033.025.041.05.08.082.115.007.007.01.017.017.024l1.367 1.367a.681.681 0 00.966 0 .683.683 0 000-.967l-.2-.2h3.135a.684.684 0 000-1.367H8.193l.2-.2a.683.683 0 000-.967zm0 17.373a.683.683 0 000-.966l-.2-.2h3.135a.684.684 0 000-1.368H8.193l.2-.2a.684.684 0 00-.966-.967L6.06 31.353a.672.672 0 00-.027.935c.009.01.016.021.027.032l1.367 1.367a.681.681 0 00.966 0z" fill="#fff"/></svg>