<svg width="101" height="100" fill="none" xmlns="http://www.w3.org/2000/svg"><g clip-path="url(#clip0_1_77)" fill="#3C5675"><path d="M98.837 18.75a1.563 1.563 0 001.563-1.563V9.375C100.4 4.205 96.194 0 91.025 0H25.4c-5.17 0-9.375 4.206-9.375 9.375V81.25H1.962A1.563 1.563 0 00.4 82.813v7.812a9.38 9.38 0 002.739 6.636 9.354 9.354 0 004.75 2.549c.58.126 1.215.19 1.886.19h89.062a1.563 1.563 0 001.105-2.667L94.15 91.54V68.75c0-6.93-3.571-13.408-9.375-17.125V18.75h14.062zM91.025 3.125a6.257 6.257 0 016.25 6.25v6.25h-12.5v-6.25a6.257 6.257 0 016.25-6.25zM19.15 9.375a6.257 6.257 0 016.25-6.25h58.643a9.338 9.338 0 00-2.393 6.25v40.614a20.382 20.382 0 00-7.813-1.551h-.306l6.319-10.11a1.562 1.562 0 00-.22-1.933 5.992 5.992 0 00-7.355-.872 6.004 6.004 0 00-6.25 0 6.004 6.004 0 00-6.25 0 5.993 5.993 0 00-7.355.872 1.562 1.562 0 00-.22 1.933l6.318 10.11h-.306a20.174 20.174 0 00-10.597 2.975 9.789 9.789 0 00-1-1.174 2.422 2.422 0 00-.166-.15 9.776 9.776 0 00-6.945-2.898h-.036a9.81 9.81 0 00-6.986 2.892l-.156.156c-2.47 2.47-3.48 5.987-2.698 9.41l2.765 11.953a4.683 4.683 0 01-1.57 4.666l-5.988 4.982H19.15V9.375zm43.053 39.063L55.648 37.95a2.861 2.861 0 013.022.655 1.562 1.562 0 002.21 0 2.86 2.86 0 014.04 0 1.562 1.562 0 002.21 0 2.86 2.86 0 014.04 0 1.562 1.562 0 002.21 0 2.86 2.86 0 013.022-.655l-6.556 10.487h-7.643zm-16.1 30.232l3.101 2.58H29.72l3.104-2.583a7.794 7.794 0 002.614-7.77L32.673 58.95a6.953 6.953 0 011.863-6.5l.156-.157a6.705 6.705 0 014.776-1.976h.025a6.679 6.679 0 014.768 2.005c.054.054.107.102.169.153a6.66 6.66 0 011.275 1.818l.014.027a6.99 6.99 0 01.533 4.626l-2.765 11.953a7.795 7.795 0 002.616 7.772zM56.65 87.5H22.275v-1.563c0-.861.7-1.562 1.562-1.562h31.25c.862 0 1.563.701 1.563 1.563V87.5zM8.546 96.755a6.232 6.232 0 01-3.192-1.698 6.27 6.27 0 01-1.83-4.432v-6.25H19.42a4.665 4.665 0 00-.27 1.563v1.83a4.695 4.695 0 00-3.124 4.42v4.687h-6.25c-.45 0-.864-.04-1.229-.12zm51.229.12H19.15v-4.688c0-.861.7-1.562 1.562-1.562h37.5c.862 0 1.563.701 1.563 1.563v4.687zm31.25-28.125v21.875H87.9a1.563 1.563 0 000 3.125h4.04l3.125 3.125H62.9v-4.688a4.695 4.695 0 00-3.125-4.418v-1.832a4.693 4.693 0 00-4.688-4.687h-.997l-5.985-4.98a4.684 4.684 0 01-1.574-4.668l2.768-11.96a10.19 10.19 0 00-.258-5.435 17.066 17.066 0 019.171-2.645h4.04l-6.707 6.708a1.563 1.563 0 002.21 2.21l8.27-8.27 8.27 8.27c.305.305.705.458 1.105.458a1.558 1.558 0 001.444-.965 1.563 1.563 0 00-.34-1.703l-6.707-6.708h4.04c3.037 0 6.008.792 8.593 2.29a17.257 17.257 0 018.595 14.898z"/><path d="M26.962 28.125h18.75a1.563 1.563 0 001.563-1.563v-6.25a1.563 1.563 0 00-.458-1.104l-9.375-9.375a1.563 1.563 0 00-2.21 0l-2.02 2.02v-.915a1.563 1.563 0 00-1.562-1.563h-4.688a1.563 1.563 0 00-1.562 1.563v15.624a1.563 1.563 0 001.562 1.563zM37.9 25h-3.125v-1.563a1.563 1.563 0 013.125.001V25zm-1.563-11.853l7.813 7.813V25h-3.125v-1.563a4.693 4.693 0 00-4.688-4.687 4.693 4.693 0 00-4.687 4.688V25h-3.125v-4.04l7.812-7.813zm-6.25-.647v2.478l-1.562 1.562V12.5h1.562zm25 15.625h21.875a1.563 1.563 0 000-3.125H55.087a1.563 1.563 0 000 3.125zm0-6.25h21.875a1.563 1.563 0 000-3.125H55.087a1.563 1.563 0 000 3.125zm0-6.25h21.875a1.563 1.563 0 000-3.125H55.087a1.563 1.563 0 000 3.125zm10.938 54.688h3.125a1.563 1.563 0 000-3.126h-1.563a1.563 1.563 0 00-3.125 0v.27a4.695 4.695 0 00-3.125 4.418 4.693 4.693 0 004.688 4.688 1.563 1.563 0 010 3.125H62.9a1.563 1.563 0 000 3.124h1.562a1.563 1.563 0 003.125 0v-.268a4.695 4.695 0 003.125-4.419 4.693 4.693 0 00-4.687-4.688 1.564 1.564 0 01-1.563-1.562c0-.862.701-1.563 1.563-1.563zM26.962 43.75h18.75a1.563 1.563 0 001.563-1.563v-9.374a1.563 1.563 0 00-1.563-1.563h-18.75a1.563 1.563 0 00-1.562 1.563v9.374a1.563 1.563 0 001.562 1.563zm1.563-9.375H44.15v6.25H28.525v-6.25zm48.437 42.188a1.563 1.563 0 100-3.126 1.563 1.563 0 000 3.126zm-20.312 0a1.563 1.563 0 100-3.126 1.563 1.563 0 000 3.126z"/></g><defs><clipPath id="clip0_1_77"><path fill="#fff" transform="translate(.4)" d="M0 0h100v100H0z"/></clipPath></defs></svg>