<svg width="101" height="100" fill="none" xmlns="http://www.w3.org/2000/svg"><g clip-path="url(#clip0_1_94)" fill="#3C5675"><path d="M32.05 53.125h37.5a1.562 1.562 0 100-3.125h-37.5a1.563 1.563 0 000 3.125zm0-6.25h37.5a1.562 1.562 0 100-3.125h-37.5a1.563 1.563 0 000 3.125zm12.5-6.25h25a1.562 1.562 0 100-3.125h-25a1.563 1.563 0 000 3.125zm26.563 17.188a1.562 1.562 0 00-1.563-1.563h-37.5a1.563 1.563 0 000 3.125h37.5a1.562 1.562 0 001.563-1.563zM47.674 75a1.563 1.563 0 000 3.125h9.375a1.562 1.562 0 100-3.125h-9.375zm14.063-6.25H47.674a1.563 1.563 0 000 3.125h14.063a1.562 1.562 0 100-3.125zm1.562-4.688a1.562 1.562 0 00-1.563-1.562H44.55a1.563 1.563 0 000 3.125h17.188a1.562 1.562 0 001.562-1.563zm-4.688 18.75a1.562 1.562 0 00-1.562-1.562h-9.375a1.563 1.563 0 000 3.125h9.375a1.562 1.562 0 001.563-1.563z"/><path d="M99.237 59.375h-.915l.723-.723a6.027 6.027 0 001.755-4.23 5.943 5.943 0 00-1.755-4.23 5.944 5.944 0 00-4.23-1.755c-1.573 0-3.114.64-4.23 1.755l-3.39 3.39-3.583 3.583V23.438a1.563 1.563 0 00-1.562-1.563H71.112V10.937h-.004a1.559 1.559 0 00-.453-1.104L61.28.458A1.562 1.562 0 0060.175 0h-18.75c-.4 0-.8.153-1.105.458l-9.375 9.375a1.563 1.563 0 00-.458 1.104v8.728l-3.582-3.582a1.562 1.562 0 00-1.105-.458H2.362A1.563 1.563 0 00.8 17.188v15.625a1.563 1.563 0 001.562 1.562h10.29l4.824 4.824c.16.158.331.305.511.44v21.298h-7.812a1.563 1.563 0 00-1.451 2.143l2.268 5.67h-.177a6.937 6.937 0 00-4.87 2.02 6.936 6.936 0 00-2.02 4.87v19.025l-2.668 2.668A1.563 1.563 0 002.362 100H82.05a1.562 1.562 0 001.562-1.563V83.46l5.335-5.335h10.29a1.562 1.562 0 001.563-1.563V60.938a1.563 1.563 0 00-1.563-1.563zM7.05 31.25H3.925v-12.5H7.05v12.5zm85.745 21.152a2.878 2.878 0 012.02-.84c.762 0 1.48.298 2.02.84a2.84 2.84 0 01.84 2.02c0 .75-.306 1.487-.84 2.02l-2.285 2.286-4.04-4.04 2.285-2.286zM88.3 56.897l4.04 4.04-22.79 22.79-4.04-4.04 22.79-22.79zm-24.04 25.96l2.12 2.12-2.65.531.53-2.651zm5.29-11.63v-4.955l3.772-3.772h4.956l-8.728 8.728zM52.362 12.5h15.625v15.625H52.362V12.5zm13.416-3.125H51.447l-6.25-6.25h14.33l6.25 6.25zm-32.166 2.21l7.813-7.813 7.812 7.813v16.54h-3.125V14.062a4.693 4.693 0 00-4.687-4.687 4.693 4.693 0 00-4.688 4.688v14.062h-3.125v-16.54zm9.375 16.54h-3.125V14.062c0-.861.701-1.562 1.563-1.562.861 0 1.562.701 1.562 1.563v14.062zm-28.582 3.583a1.562 1.562 0 00-1.105-.458h-3.125v-12.5h14.978l3.125 3.125H19.55a1.563 1.563 0 00-1.563 1.563v6.25a1.561 1.561 0 00.458 1.104l3.719 3.72a1.739 1.739 0 01.51 1.238c0 .462-.186.914-.51 1.239a1.763 1.763 0 01-1.24.511c-.245 0-.5-.056-.751-.167a1.629 1.629 0 01-.487-.344l-5.281-5.281zm9.09 32.355l-.317.796a12.359 12.359 0 00-3.513 3.891h-5.307l-1.875-4.688h11.013zm6.992 20.312c-5.17 0-9.375-4.206-9.375-9.375 0-3.398 1.934-6.632 4.918-8.25a9.374 9.374 0 014.457-1.125c5.17 0 9.375 4.206 9.375 9.375 0 5.17-4.205 9.375-9.375 9.375zM6.592 96.417a1.563 1.563 0 00.458-1.105v-19.67a3.79 3.79 0 011.105-2.661 3.79 3.79 0 012.66-1.105h3.4l-2.02 2.02a1.562 1.562 0 102.21 2.21l3.582-3.583.209.208a12.47 12.47 0 004.037 11.645H19.55a1.563 1.563 0 00-1.563 1.563v6.25a1.563 1.563 0 001.563 1.562h3.125v3.125H6.135l.457-.458zm14.52-5.792V87.5h18.75v3.125h-18.75zm23.438 6.25H25.8V93.75h18.75v3.125zm3.125 0v-4.688a1.563 1.563 0 00-1.563-1.562h-3.125v-4.688a1.563 1.563 0 00-1.562-1.562h-2.683A12.47 12.47 0 0042.987 75c0-6.893-5.607-12.5-12.5-12.5-1.083 0-2.15.138-3.18.408a1.562 1.562 0 00-1.507-1.97h-4.688V40.62a4.911 4.911 0 003.261-1.421A4.91 4.91 0 0025.8 35.75c0-1.304-.507-2.53-1.427-3.449l-3.26-3.26V25h9.374v4.688a1.563 1.563 0 001.563 1.562h37.5a1.562 1.562 0 001.562-1.563V25h9.375v34.375h-7.812a1.563 1.563 0 00-1.105.458l-4.688 4.687a1.563 1.563 0 00-.457 1.105v8.728l-4.23 4.23a1.564 1.564 0 00-.428.798l-1.562 7.813a1.563 1.563 0 001.839 1.838l7.812-1.562c.303-.06.58-.21.799-.428l6.707-6.707 3.125 3.125v13.415H47.675zM88.3 75a1.563 1.563 0 00-1.105.458l-5.145 5.145-2.478-2.478 11.853-11.853V75H88.3zm9.375 0H94.55V63.147l.647-.647h2.478V75z"/><path d="M60.175 15.625a4.693 4.693 0 00-4.688 4.688v3.125A1.563 1.563 0 0057.05 25h6.25a1.562 1.562 0 001.563-1.563v-3.125a4.693 4.693 0 00-4.688-4.687zm1.563 6.25h-3.126v-1.563c0-.861.701-1.562 1.563-1.562.861 0 1.563.701 1.563 1.563v1.562zM75.8 90.625H55.487a1.563 1.563 0 000 3.125H75.8a1.562 1.562 0 100-3.125zm-46.094-18.75h3.906a1.562 1.562 0 100-3.125H32.05a1.562 1.562 0 10-3.125 0v.079a3.913 3.913 0 00-3.125 3.827 3.91 3.91 0 003.906 3.906h1.563a.782.782 0 010 1.563h-3.906a1.563 1.563 0 000 3.125h1.562a1.563 1.563 0 003.125 0v-.079a3.913 3.913 0 003.125-3.827 3.91 3.91 0 00-3.906-3.906h-1.563a.782.782 0 010-1.563z"/></g><defs><clipPath id="clip0_1_94"><path fill="#fff" transform="translate(.8)" d="M0 0h100v100H0z"/></clipPath></defs></svg>