<svg width="100" height="100" fill="none" xmlns="http://www.w3.org/2000/svg"><g clip-path="url(#clip0_69_452)" fill="#3C5675"><path d="M99.992 76.408c-.002-.022-.006-.044-.01-.066a1.24 1.24 0 00-.012-.085c-.005-.026-.012-.05-.019-.076l-.018-.072-.026-.073c-.009-.024-.016-.048-.026-.072l-.03-.066c-.012-.024-.023-.049-.036-.072-.01-.021-.024-.041-.036-.061-.014-.024-.027-.047-.042-.07l-.047-.065c-.015-.02-.029-.04-.044-.058a1.547 1.547 0 00-.094-.104l-.01-.01-12.5-12.5a1.563 1.563 0 00-1.105-.458V23.437a1.563 1.563 0 00-1.562-1.562H61.691a14.058 14.058 0 002.371-7.813C64.063 6.309 57.755 0 50 0S35.937 6.308 35.937 14.063c0 2.78.826 5.5 2.372 7.812H15.625a1.563 1.563 0 00-1.563 1.563V75h-12.5A1.563 1.563 0 000 76.563v21.874A1.563 1.563 0 001.563 100h46.874A1.563 1.563 0 0050 98.437V76.564A1.563 1.563 0 0048.437 75h-31.25V34.375h65.626V62.5H67.186l-.034.002c-.04 0-.08.002-.119.006-.027.002-.053.007-.08.011-.023.004-.047.006-.071.011l-.084.02c-.022.006-.043.01-.064.017-.027.008-.053.018-.08.028l-.065.024a.893.893 0 00-.07.033.72.72 0 00-.069.033c-.022.011-.043.025-.064.037-.022.014-.045.026-.067.041l-.066.049c-.02.014-.039.027-.057.042-.036.03-.07.06-.103.093l-.011.01-12.5 12.5a1.564 1.564 0 00-.458 1.106v21.874A1.563 1.563 0 0054.688 100h43.75A1.563 1.563 0 00100 98.437V76.564c0-.052-.003-.103-.008-.155zm-59.935 11.44l6.818-2.728v9.545l-6.818-6.817zM36.9 89.11l7.765 7.765H5.335L13.1 89.11l11.32 4.528c.372.15.788.15 1.16 0L36.9 89.11zM3.125 94.665V85.12l6.818 2.727-6.818 6.818zm43.75-12.91L25 90.505l-21.875-8.75v-3.63h43.75v3.63zM50 3.125c6.03 0 10.938 4.906 10.938 10.938a10.92 10.92 0 01-3.704 8.201A10.952 10.952 0 0150 25c-2.659 0-5.228-.972-7.234-2.736a10.924 10.924 0 01-3.703-8.201C39.063 8.03 43.968 3.124 50 3.124zM17.187 25h23.979A14.07 14.07 0 0050 28.125 14.07 14.07 0 0058.834 25h23.978v6.25H17.189V25zm54.688 71.875H68.75v-7.813h3.125v7.813zm0-10.938H68.75v-7.543a4.695 4.695 0 013.125 4.418v3.126zm-6.25 0H62.5v-3.124a4.695 4.695 0 013.125-4.42v7.544zM62.5 89.064h3.125v7.812H62.5v-7.813zm15.625 7.812H75V82.812C75 78.505 71.495 75 67.187 75c-4.307 0-7.812 3.505-7.812 7.813v14.062H56.25V77.21l10.938-10.938L78.124 77.21v19.665zm-7.165-31.25h14.33L94.665 75h-14.33l-9.375-9.375zm25.915 31.25H81.25v-18.75h15.625v18.75z"/><path d="M85.938 93.75h6.25a1.563 1.563 0 001.562-1.563v-6.25a4.693 4.693 0 00-4.688-4.687 4.693 4.693 0 00-4.687 4.688v6.25a1.563 1.563 0 001.563 1.562zm1.562-7.813c0-.861.701-1.562 1.563-1.562.861 0 1.562.701 1.562 1.563v4.687H87.5v-4.688zm-41.73-39.52a1.558 1.558 0 002.21 0l2.02-2.02 2.02 2.02c.305.305.705.458 1.105.458a1.558 1.558 0 001.444-.965 1.563 1.563 0 00-.34-1.702l-2.02-2.02 2.02-2.02a1.563 1.563 0 00-2.209-2.21L50 39.978l-2.02-2.02a1.562 1.562 0 00-2.21 2.21l2.02 2.02-2.02 2.02a1.563 1.563 0 000 2.21zm12.5 0a1.558 1.558 0 002.21 0l2.02-2.02 2.02 2.02c.305.305.705.458 1.105.458a1.558 1.558 0 001.444-.965 1.563 1.563 0 00-.34-1.702l-2.02-2.02 2.02-2.02a1.563 1.563 0 00-2.209-2.21l-2.02 2.02-2.02-2.02a1.562 1.562 0 00-2.21 2.21l2.02 2.02-2.02 2.02a1.563 1.563 0 000 2.21zm12.5 0a1.558 1.558 0 002.21 0l2.02-2.02 2.02 2.02c.305.305.705.458 1.105.458a1.558 1.558 0 001.444-.965 1.563 1.563 0 00-.34-1.702l-2.02-2.02 2.02-2.02a1.563 1.563 0 00-2.209-2.21L75 39.978l-2.02-2.02a1.562 1.562 0 00-2.21 2.21l2.02 2.02-2.02 2.02a1.563 1.563 0 000 2.21zm-25 12.5a1.558 1.558 0 002.21 0l2.02-2.02 2.02 2.02c.305.305.705.458 1.105.458a1.558 1.558 0 001.444-.965 1.563 1.563 0 00-.34-1.702l-2.02-2.02 2.02-2.02a1.563 1.563 0 00-2.209-2.21L50 52.478l-2.02-2.02a1.562 1.562 0 00-2.21 2.21l2.02 2.02-2.02 2.02a1.563 1.563 0 000 2.21zm12.5 0a1.558 1.558 0 002.21 0l2.02-2.02 2.02 2.02c.305.305.705.458 1.105.458a1.558 1.558 0 001.444-.965 1.563 1.563 0 00-.34-1.702l-2.02-2.02 2.02-2.02a1.563 1.563 0 00-2.209-2.21l-2.02 2.02-2.02-2.02a1.562 1.562 0 00-2.21 2.21l2.02 2.02-2.02 2.02a1.563 1.563 0 000 2.21zm12.5 0a1.558 1.558 0 002.21 0l2.02-2.02 2.02 2.02c.305.305.705.458 1.105.458a1.558 1.558 0 001.444-.965 1.563 1.563 0 00-.34-1.702l-2.02-2.02 2.02-2.02a1.563 1.563 0 00-2.209-2.21L75 52.478l-2.02-2.02a1.562 1.562 0 00-2.21 2.21l2.02 2.02-2.02 2.02a1.563 1.563 0 000 2.21zm-29.04-8.46a1.563 1.563 0 00-2.21 0l-2.02 2.02-2.02-2.02a1.562 1.562 0 00-2.21 2.21l2.02 2.02-2.02 2.02a1.563 1.563 0 002.21 2.21l2.02-2.02 2.02 2.02c.305.305.705.458 1.105.458a1.558 1.558 0 001.444-.965 1.563 1.563 0 00-.34-1.702l-2.02-2.02 2.02-2.02a1.563 1.563 0 000-2.21zm-12.5 0a1.563 1.563 0 00-2.21 0L25 52.478l-2.02-2.02a1.562 1.562 0 00-2.21 2.21l2.02 2.02-2.02 2.02a1.563 1.563 0 002.21 2.21l2.02-2.02 2.02 2.02c.305.305.705.458 1.105.458a1.558 1.558 0 001.444-.965 1.563 1.563 0 00-.34-1.702l-2.02-2.02 2.02-2.02a1.563 1.563 0 000-2.21zm16.54 20.96a1.558 1.558 0 002.21 0l2.02-2.02 2.02 2.02c.305.305.705.458 1.105.458a1.558 1.558 0 001.444-.965 1.563 1.563 0 00-.34-1.702l-2.02-2.02 2.02-2.02a1.563 1.563 0 00-2.209-2.21L50 64.978l-2.02-2.02a1.562 1.562 0 00-2.21 2.21l2.02 2.02-2.02 2.02a1.563 1.563 0 000 2.21zm-4.04-8.46a1.563 1.563 0 00-2.21 0l-2.02 2.02-2.02-2.02a1.562 1.562 0 00-2.21 2.21l2.02 2.02-2.02 2.02a1.563 1.563 0 002.21 2.21l2.02-2.02 2.02 2.02c.305.305.705.458 1.105.458a1.558 1.558 0 001.444-.965 1.563 1.563 0 00-.34-1.702l-2.02-2.02 2.02-2.02a1.563 1.563 0 000-2.21zm-12.5 0a1.563 1.563 0 00-2.21 0L25 64.978l-2.02-2.02a1.562 1.562 0 00-2.21 2.21l2.02 2.02-2.02 2.02a1.563 1.563 0 002.21 2.21l2.02-2.02 2.02 2.02c.305.305.705.458 1.105.458a1.558 1.558 0 001.444-.965 1.563 1.563 0 00-.34-1.702l-2.02-2.02 2.02-2.02a1.563 1.563 0 000-2.21zM4.687 18.75h9.375a6.257 6.257 0 006.25-6.25 6.257 6.257 0 00-6.777-6.227 6.192 6.192 0 00-4.16-1.585 6.26 6.26 0 00-6.104 4.906A4.696 4.696 0 000 14.063a4.693 4.693 0 004.688 4.687zm0-6.25a1.563 1.563 0 001.563-1.563 3.129 3.129 0 013.125-3.124 3.06 3.06 0 012.384 1.114 1.563 1.563 0 001.541.537c.281-.06.523-.089.762-.089a3.129 3.129 0 013.126 3.125 3.129 3.129 0 01-3.125 3.125H4.687a1.564 1.564 0 01-1.562-1.563c0-.861.701-1.562 1.563-1.562zm76.563 0h6.25a6.257 6.257 0 006.25-6.25A6.257 6.257 0 0087.5 0a6.22 6.22 0 00-5.446 3.192 4.693 4.693 0 00-5.492 4.62A4.693 4.693 0 0081.25 12.5zm0-6.25c.312 0 .585.078.81.231a1.563 1.563 0 002.415-1.014 1.34 1.34 0 01.07-.2A3.082 3.082 0 0187.5 3.125a3.129 3.129 0 013.124 3.126A3.129 3.129 0 0187.5 9.375h-6.25a1.564 1.564 0 01-1.563-1.563c0-.861.701-1.562 1.563-1.562zm-32.648 8.511a1.563 1.563 0 002.503.407l3.125-3.125a1.563 1.563 0 00-2.21-2.21l-1.592 1.592-2.155-4.311a1.563 1.563 0 00-2.796 1.397l3.126 6.25z"/></g><defs><clipPath id="clip0_69_452"><path fill="#fff" d="M0 0h100v100H0z"/></clipPath></defs></svg>