<svg width="101" height="100" fill="none" xmlns="http://www.w3.org/2000/svg"><g clip-path="url(#clip0_3_95)" fill="#006665"><path d="M36.138 56.25a4.693 4.693 0 00-4.688 4.688v3.124a1.563 1.563 0 001.563 1.563h6.25a1.562 1.562 0 001.562-1.563v-3.124a4.693 4.693 0 00-4.688-4.688zM37.7 62.5h-3.125v-1.563a1.564 1.564 0 013.125.001V62.5z"/><path d="M93.95 18.75h-25v-7.813a1.563 1.563 0 00-1.563-1.562H52.41l-3.772-3.772v-4.04A1.563 1.563 0 0047.075 0h-3.167c-2.453 0-4.666 1.347-5.638 3.43a6.03 6.03 0 00.492 5.945h-2.624a4.693 4.693 0 00-4.688 4.688v4.687H15.825A6.257 6.257 0 009.575 25v22.79l-2.667 2.668a1.563 1.563 0 00-.458 1.105V68.75H1.762A1.563 1.563 0 00.2 70.313V75a6.257 6.257 0 006.25 6.25h50v17.188a1.562 1.562 0 002.667 1.104l6.708-6.707 6.708 6.707c.42.42 1.15.568 1.703.34a1.563 1.563 0 00.964-1.445V81.25h9.375a1.6 1.6 0 00.32-.033l.002.025c3.324-.167 5.928-3.022 5.928-6.5V31.25h7.813a1.563 1.563 0 001.562-1.563V25a6.257 6.257 0 00-6.25-6.25zM65.825 12.5V25h-6.25V12.5h6.25zM41.103 4.751c.46-.987 1.561-1.626 2.805-1.626h1.605V6.25a1.561 1.561 0 00.457 1.105l4.688 4.687a1.562 1.562 0 001.105.458h4.687V25h-9.375V14.062a4.695 4.695 0 00-3.988-4.635l-1.423-1.423a2.85 2.85 0 01-.561-3.253zm-6.528 9.311c0-.861.7-1.562 1.563-1.562h6.25c.861 0 1.562.701 1.562 1.563V25h-7.813a1.564 1.564 0 01-1.562-1.563v-9.375zm-25 38.148l7.813-7.813L25.2 52.21v16.54h-3.125V54.687A4.693 4.693 0 0017.387 50a4.693 4.693 0 00-4.687 4.688V68.75H9.575V52.21zm18.75 16.54V53.125H43.95V68.75H28.325zM27.41 50l-6.25-6.25h14.33L41.74 50H27.41zm-8.46 18.75h-3.125V54.687a1.564 1.564 0 013.125.001V68.75zm-12.5 9.375A3.129 3.129 0 013.325 75v-3.125H56.45v6.25h-50zm70.237-30.522l1.016 1.016c.762.761.762 2 0 2.762l-1.016 1.016a5.046 5.046 0 00-1.487 3.59v1.435a1.955 1.955 0 01-1.953 1.953h-1.434a5.046 5.046 0 00-3.591 1.487l-1.016 1.016a1.94 1.94 0 01-1.381.572 1.94 1.94 0 01-1.381-.572l-1.016-1.016a5.045 5.045 0 00-3.59-1.487h-1.435a1.955 1.955 0 01-1.953-1.953v-1.434a5.046 5.046 0 00-1.487-3.591l-1.016-1.016c-.762-.762-.762-2 0-2.762l1.016-1.016a5.046 5.046 0 001.487-3.59v-1.435c0-1.077.876-1.953 1.953-1.953h1.434a5.046 5.046 0 003.591-1.487l1.016-1.016a1.94 1.94 0 011.381-.572 1.94 1.94 0 011.381.572l1.016 1.016a5.045 5.045 0 003.59 1.487h1.435c1.077 0 1.953.876 1.953 1.953v1.434c0 1.357.528 2.632 1.487 3.591zM66.93 89.52a1.563 1.563 0 00-2.21 0l-5.145 5.145V62.5h.262a1.94 1.94 0 011.382.572l1.015 1.016a5.045 5.045 0 003.591 1.487 5.045 5.045 0 003.59-1.487l1.016-1.016a1.94 1.94 0 011.381-.572h.263v32.165L66.93 89.52zm8.27-11.395v-6.25h3.125V75a6.212 6.212 0 00.839 3.125H75.2zM87.7 25v49.743c0 1.78-1.328 3.296-2.96 3.378v.013a1.585 1.585 0 00-.165-.009A3.129 3.129 0 0181.45 75v-4.688a1.563 1.563 0 00-1.563-1.562H75.2v-6.641a5.085 5.085 0 003.125-4.687v-1.434c0-.522.203-1.013.572-1.382l1.016-1.015a5.084 5.084 0 000-7.182l-1.016-1.015a1.94 1.94 0 01-.572-1.381v-1.435c0-2.8-2.278-5.078-5.078-5.078h-1.434a1.94 1.94 0 01-1.382-.572l-1.015-1.015a5.044 5.044 0 00-3.591-1.488 5.045 5.045 0 00-3.59 1.487l-1.017 1.016a1.94 1.94 0 01-1.38.572h-1.435a5.084 5.084 0 00-5.078 5.078v1.434c0 .522-.203 1.013-.572 1.382l-1.016 1.015a5.084 5.084 0 000 7.182l1.016 1.015a1.941 1.941 0 01.572 1.381v1.435a5.085 5.085 0 003.125 4.687v6.641h-9.375V51.562c0-.43-.175-.822-.458-1.104l-9.375-9.375a1.562 1.562 0 00-1.104-.458h-18.75c-.4 0-.8.153-1.105.458L12.7 44.665V25a3.129 3.129 0 013.125-3.125H31.45v1.563a4.693 4.693 0 004.688 4.687h31.25a1.563 1.563 0 001.562-1.563v-4.687h19.589A6.214 6.214 0 0087.7 25zm9.375 3.125h-6.25V25a3.129 3.129 0 013.125-3.125A3.129 3.129 0 0197.075 25v3.125z"/><path d="M65.825 40.675c-5.142 0-9.325 4.184-9.325 9.325 0 5.142 4.183 9.325 9.325 9.325 5.141 0 9.325-4.183 9.325-9.325 0-5.142-4.184-9.325-9.325-9.325zm0 15.525a6.207 6.207 0 01-6.2-6.2c0-3.419 2.781-6.2 6.2-6.2 3.418 0 6.2 2.782 6.2 6.2 0 3.419-2.782 6.2-6.2 6.2z"/></g><defs><clipPath id="clip0_3_95"><path fill="#fff" transform="translate(.2)" d="M0 0h100v100H0z"/></clipPath></defs></svg>