<svg width="101" height="100" fill="none" xmlns="http://www.w3.org/2000/svg"><g clip-path="url(#clip0_3_52)" fill="#006665"><path d="M80.6 83.334v3.618A5.024 5.024 0 0077.552 90h-3.619v3.334h5a1.666 1.666 0 001.667-1.667A1.67 1.67 0 0182.267 90a1.667 1.667 0 001.666-1.666v-5H80.6zM63.648 90a5.026 5.026 0 00-3.048-3.047v-3.62h-3.333v5A1.667 1.667 0 0058.933 90c.92 0 1.667.748 1.667 1.667a1.666 1.666 0 001.667 1.666h5V90h-3.62zm18.619-43.333A1.669 1.669 0 0180.6 45a1.666 1.666 0 00-1.667-1.666h-5v3.333h3.62a5.025 5.025 0 003.047 3.047v3.62h3.333v-5a1.667 1.667 0 00-1.666-1.667zm-20-3.334A1.666 1.666 0 0060.6 45a1.67 1.67 0 01-1.667 1.667 1.667 1.667 0 00-1.666 1.666v5H60.6v-3.618a5.023 5.023 0 003.048-3.048h3.619v-3.334h-5zM70.6 55c-5.578 0-10.49 2.933-13.134 7.845l2.935 1.58c2.054-3.814 5.866-6.091 10.199-6.091s8.145 2.277 10.2 6.092l2.934-1.58C81.089 57.932 76.179 55 70.6 55zm10.2 17.241c-2.055 3.815-5.867 6.093-10.2 6.093-4.333 0-8.145-2.278-10.2-6.093l-2.934 1.58c2.645 4.913 7.556 7.846 13.134 7.846 5.579 0 10.49-2.933 13.134-7.845l-2.935-1.58zm-11.867 12.76h3.334v3.332h-3.334V85zm0-36.668h3.334v3.334h-3.334v-3.334z"/><path d="M88.933 36.667H72.267v-35A1.667 1.667 0 0070.6 0H2.267A1.667 1.667 0 00.6 1.667v96.666A1.666 1.666 0 002.267 100h86.666a1.666 1.666 0 001.667-1.667v-60a1.667 1.667 0 00-1.667-1.666zm-85-33.334h65v10h-65v-10zm46.667 35v58.334H3.933v-80h65v20H52.267a1.667 1.667 0 00-1.667 1.666zm36.667 58.334H53.933V40h33.334v56.667z"/><path d="M78.933 66.666V65a1.667 1.667 0 00-1.666-1.667H70.6A1.667 1.667 0 0068.933 65v5H65.6v-3.334h1.667v-3.333h-3.334A1.667 1.667 0 0062.267 65v1.666H60.6V70h1.667v1.666a1.667 1.667 0 001.666 1.667H70.6a1.666 1.666 0 001.667-1.666v-5H75.6V70h-1.667v3.333h3.334a1.667 1.667 0 001.666-1.666V70H80.6v-3.334h-1.667zm13.334-30H95.6V100h-3.333V36.666zm5 0h3.333V100h-3.333V36.666zM18.933 20h-10a1.667 1.667 0 00-1.666 1.666v10a1.667 1.667 0 001.666 1.667h10a1.666 1.666 0 001.667-1.666v-10A1.667 1.667 0 0018.933 20zm-1.666 10H10.6v-6.667h6.667V30zm6.666-10H65.6v3.333H23.933V20zm0 6.666H65.6V30H23.933v-3.334zm-5 10h-10a1.667 1.667 0 00-1.666 1.667v10A1.667 1.667 0 008.933 50h10a1.667 1.667 0 001.667-1.667v-10a1.666 1.666 0 00-1.667-1.666zm-1.666 10H10.6V40h6.667v6.666zm6.666-10h23.334V40H23.933v-3.334zm0 6.667h23.334v3.334H23.933v-3.334zm2.155 5.489l-5.604 5.604a1.656 1.656 0 00-1.55-1.093h-10A1.667 1.667 0 007.266 55v10a1.667 1.667 0 001.666 1.666h10A1.667 1.667 0 0020.6 65v-5.977l7.845-7.845-2.357-2.356zm-8.821 8.821L15.6 59.31l-2.155-2.155-2.357 2.357 3.334 3.333c.325.325.752.488 1.178.488a1.66 1.66 0 001.178-.488l.489-.488v.976H10.6v-6.666h6.667v.976zm11.666-4.31h18.334v3.334H28.933v-3.334zm-5 6.667h23.334v3.333H23.933V60zm-5 10h-10a1.667 1.667 0 00-1.666 1.666v10a1.667 1.667 0 001.666 1.667h10a1.666 1.666 0 001.667-1.666v-10A1.667 1.667 0 0018.933 70zm-1.666 10H10.6v-6.667h6.667V80zm6.666-10h23.334v3.333H23.933V70zm0 6.666h23.334V80H23.933v-3.334zM7.267 88.334h40v3.334h-40v-3.334zm0-81.666H45.6V10H7.267V6.667zm41.666 0H65.6V10H48.933V6.667z"/></g><defs><clipPath id="clip0_3_52"><path fill="#fff" transform="translate(.6)" d="M0 0h100v100H0z"/></clipPath></defs></svg>