<svg width="1257" height="298" fill="none" xmlns="http://www.w3.org/2000/svg"><path d="M27.268 240.3l-.555.832.006.004.006.004.543-.84zm-20.7-26.7l-.944.331.003.007.002.008.939-.346zm-4.2-57.6l.979.203-.98-.203zm14.1-28.5l-.726-.688-.001.001.727.687zm12.6-9.3l.447.894 1.471-.735-1.33-.968-.588.809zm-17.4-20.1l-.878.479.006.012.007.012.865-.503zm-7.5-33.3l1-.015-1 .015zm6.6-34.5l.901.432.004-.007-.905-.425zm89.1-22.5l-.5.866.008.005.492-.871zm20.4 22.5l-.913.41.004.007.909-.417zm6.3 34.5l-1-.015 1 .015zm-7.5 33.6l-.878-.479-.004.007.882.472zm-17.1 19.8l-.561-.828-1.416.958 1.529.764.448-.894zm12.3 9.3l-.746.667.019.02.019.02.708-.707zm14.4 28.5l-.98.203.004.016.004.016.972-.235zm2.1 18.6h-1v.027l1-.027zm-6 39l-.933-.36-.003.007-.003.007.939.346zm-20.7 26.7l.55.835.004-.003-.554-.832zm-25.5-31.2l.819.573-.82-.573zm5.4-14.7l-.991-.137.99.137zm1.2-16.8l-1-.031v.031h1zm-1.2-18.6l-.992.132.002.016.003.016.987-.164zm-5.4-14.7l.805-.593-.805.593zm-25.8 0l-.785-.62-.01.013-.01.014.805.593zm-5.7 14.7l-.987-.164-.002.013-.002.014.99.137zm0 35.7l-.992.132.001.005.99-.137zm5.4 14.7l-.82.573.017.024.018.023.785-.62zm22.8-113.1l-.756-.655-.013.015-.012.015.78.625zm5.7-12.9l-.978-.21.978.21zm-2.4-40.5l-.901.434.01.02.01.02.88-.474zm-26.4 0l-.875-.486-.006.012.88.474zm-2.7 40.5l-.986.17.004.02.004.02.978-.21zm5.7 12.9l-.756.655.012.014.013.013.73-.682zm10.5 152.3c-15.882 0-28.472-3.078-37.858-9.14l-1.085 1.68c9.814 6.338 22.824 9.46 38.943 9.46v-2zm-37.846-9.132c-9.414-6.276-16.185-15.001-20.316-26.214l-1.877.692c4.27 11.587 11.298 20.662 21.084 27.186l1.11-1.664zm-20.31-26.199C3.554 201.995 1.567 189.11 1.567 174.6h-2c0 14.69 2.012 27.805 6.056 39.331l1.887-.662zM1.567 174.6c0-6.54.594-12.671 1.779-18.397l-1.959-.406C.173 161.671-.432 167.94-.432 174.6h2zm1.779-18.397c1.184-5.724 2.958-10.941 5.315-15.656l-1.789-.894c-2.442 4.885-4.269 10.268-5.485 16.144l1.959.406zm5.315-15.656c2.36-4.72 5.205-8.837 8.533-12.36l-1.454-1.374c-3.473 3.677-6.428 7.96-8.868 12.84l1.789.894zm8.531-12.359c3.518-3.714 7.623-6.744 12.322-9.094l-.895-1.788c-4.901 2.45-9.196 5.619-12.878 9.506l1.451 1.376zm12.463-10.797c-6.466-4.702-12.179-11.288-17.124-19.794l-1.729 1.006c5.055 8.694 10.942 15.508 17.676 20.406l1.177-1.618zm-17.11-19.77c-4.701-8.618-7.18-19.546-7.379-32.836l-2 .03c.202 13.51 2.723 24.782 7.623 33.764l1.756-.958zM5.167 64.785C4.97 51.501 7.151 40.161 11.67 30.732l-1.803-.864c-4.682 9.77-6.9 21.431-6.698 34.947l2-.03zm6.506-34.06c4.514-9.617 11.272-16.96 20.287-22.054l-.985-1.742C21.59 12.234 14.549 19.892 9.863 29.875l1.81.85zM31.96 8.67C40.972 3.576 52.192 1 65.668 1v-2C51.943-1 40.363 1.624 30.975 6.93l.985 1.74zM65.668 1c13.68 0 24.893 2.578 33.7 7.666l1-1.732C91.174 1.622 79.588-1 65.668-1v2zm33.707 7.67c9.012 5.094 15.666 12.43 19.98 22.04l1.825-.82c-4.486-9.99-11.431-17.654-20.82-22.96l-.984 1.74zm19.984 22.047c4.323 9.433 6.407 20.778 6.209 34.068l1.999.03c.202-13.51-1.914-25.165-6.39-34.932l-1.818.834zm6.209 34.068c-.199 13.493-2.679 24.52-7.378 33.136l1.755.958c4.901-8.984 7.421-20.357 7.622-34.064l-1.999-.03zm-7.382 33.143c-4.538 8.484-10.136 14.95-16.779 19.444l1.121 1.656c6.958-4.706 12.759-11.44 17.421-20.156l-1.763-.944zm-16.666 21.166c4.694 2.347 8.691 5.372 12.002 9.073l1.491-1.334c-3.489-3.899-7.691-7.074-12.598-9.527l-.895 1.788zm12.04 9.113c3.52 3.52 6.459 7.631 8.813 12.34l1.789-.894c-2.445-4.891-5.507-9.18-9.187-12.86l-1.415 1.414zm8.813 12.34c2.358 4.715 4.131 9.932 5.315 15.656l1.959-.406c-1.216-5.876-3.042-11.259-5.485-16.144l-1.789.894zm5.323 15.688c1.379 5.715 2.072 11.836 2.072 18.365h2c0-6.671-.708-12.95-2.128-18.835l-1.944.47zm2.072 18.392c.397 14.493-1.589 27.358-5.933 38.613l1.866.72c4.456-11.545 6.469-24.68 6.066-39.387l-1.999.054zm-5.939 38.627c-4.131 11.213-10.902 19.938-20.316 26.214l1.109 1.664c9.786-6.524 16.815-15.599 21.084-27.186l-1.877-.692zm-20.312 26.211c-9.18 6.055-21.763 9.135-37.85 9.135v2c16.315 0 29.33-3.12 38.951-9.465l-1.101-1.67zM65.667 216.1c6.057 0 10.696-2.107 13.72-6.427l-1.639-1.146c-2.576 3.68-6.537 5.573-12.08 5.573v2zm13.72-6.427c2.907-4.153 4.754-9.21 5.571-15.136l-1.981-.274c-.783 5.674-2.536 10.417-5.229 14.264l1.639 1.146zm5.571-15.136c.806-5.842 1.21-11.488 1.21-16.937h-2c0 5.351-.397 10.905-1.191 16.663l1.981.274zm1.21-16.906c.201-6.462-.203-12.727-1.214-18.795l-1.973.328c.989 5.932 1.385 12.067 1.187 18.405l2 .062zm-1.21-18.763c-.815-6.121-2.661-11.193-5.585-15.161l-1.61 1.186c2.675 3.632 4.43 8.36 5.213 14.239l1.983-.264zm-5.585-15.161c-3.032-4.115-7.669-6.107-13.705-6.107v2c5.563 0 9.527 1.808 12.094 5.293l1.61-1.186zM65.668 137.6c-5.852 0-10.465 2.001-13.685 6.08l1.57 1.24c2.779-3.521 6.767-5.32 12.115-5.32v-2zm-13.706 6.107c-2.916 3.958-4.862 9.017-5.88 15.129l1.972.328c.981-5.888 2.835-10.629 5.519-14.271l-1.61-1.186zm-5.885 15.156c-.807 5.851-1.21 12.097-1.21 18.737h2c0-6.56.398-12.714 1.191-18.463l-1.981-.274zm-1.21 18.737c0 5.449.404 11.194 1.21 17.232l1.982-.264c-.795-5.962-1.191-11.617-1.191-16.968h-2zm1.21 17.237c.817 5.926 2.664 10.983 5.571 15.136l1.639-1.146c-2.693-3.847-4.446-8.59-5.229-14.264l-1.981.274zm5.606 15.183c3.228 4.088 7.946 6.08 13.985 6.08v-2c-5.562 0-9.643-1.808-12.416-5.32l-1.57 1.24zM65.668 101.8c4.289 0 7.782-1.627 10.38-4.875l-1.561-1.25c-2.202 2.752-5.109 4.125-8.82 4.125v2zm10.355-4.845c2.749-3.171 4.702-7.649 5.922-13.346l-1.955-.418c-1.18 5.503-3.027 9.626-5.478 12.454l1.511 1.31zm5.922-13.346c1.219-5.686 1.823-12.36 1.823-20.009h-2c0 7.55-.597 14.077-1.778 19.59l1.955.42zM83.768 63.6c0-8.695-1.414-15.777-4.32-21.174l-1.76.948c2.693 5.003 4.08 11.721 4.08 20.226h2zm-4.3-21.134c-1.366-2.839-3.207-5.02-5.544-6.488-2.336-1.467-5.103-2.178-8.256-2.178v2c2.846 0 5.23.639 7.193 1.872 1.963 1.233 3.572 3.1 4.806 5.662l1.802-.868zm-13.8-8.666c-3.155 0-5.963.712-8.39 2.168-2.425 1.455-4.415 3.62-5.985 6.446l1.749.972c1.43-2.574 3.19-4.459 5.265-5.704 2.073-1.244 4.515-1.882 7.36-1.882v-2zm-14.38 8.626c-2.905 5.394-4.32 12.374-4.32 20.874h2c0-8.3 1.385-14.92 4.08-19.926l-1.76-.948zM46.967 63.3c0 7.642.502 14.4 1.514 20.27l1.971-.34c-.988-5.73-1.485-12.371-1.485-19.93h-2zm1.522 20.31c1.22 5.696 3.173 10.174 5.922 13.345l1.511-1.31c-2.451-2.828-4.298-6.951-5.478-12.454l-1.955.418zm5.947 13.372c2.994 3.208 6.76 4.818 11.23 4.818v-2c-3.93 0-7.163-1.39-9.768-4.182l-1.462 1.364zM184.355 242.4l-.471.882.008.004.008.004.455-.89zm-19.5-21l-.92.392.003.007.917-.399zm-6-37.8v-1h-1v1h1zm43.8 0h1v-1h-1v1zm3 22.8l-.928.371.006.016.007.016.915-.403zm26.1 3l-.756-.655.756.655zm6.9-69.3h1v-3.434l-1.844 2.897.844.537zm-12.3 10.2l.406.914-.406-.914zm-18.6 3.9l.015 1h.014l-.029-1zm-31.2-9.3l-.646.763.006.005.006.005.634-.773zm-16.8-26.4l-.96.279.002.008.003.008.955-.295zm1.5-79.8l.946.325-.946-.325zm20.7-28.5l-.57-.822-.008.006.578.816zm75.9-.3l-.566.824.005.004.006.004.555-.832zm21 27l-.935.355.935-.355zm-18.3 201.6l.608.794-.608-.794zm-28.8-123.3l.651.759.004-.003-.655-.756zm6.9-7.5l.832.555.168-.252v-.303h-1zm-1.5-55.8l-.982.189.982-.189zm-5.4-12.6l-.776.63.776-.63zm-28.2 14.7l-.987-.16-.003.016-.002.016.992.128zm-.3 44.4l-.996.093.996-.093zm4.5 15l-.832.555.01.015.011.015.811-.585zm12.6 134.9c-14.912 0-26.737-2.289-35.545-6.79l-.91 1.78c9.193 4.699 21.367 7.01 36.455 7.01v-2zm-35.529-6.782c-8.805-4.696-15.145-11.527-19.054-20.517l-1.834.798c4.092 9.41 10.751 16.579 19.946 21.483l.942-1.764zm-19.051-20.51c-3.933-9.244-5.92-20.503-5.92-33.808h-2c0 13.495 2.014 25.036 6.08 34.592l1.84-.784zm-5.92-33.808v-1.8h-2v1.8h2zm0-1.8v-1.8h-2v1.8h2zm-1-.8h43.8v-2h-43.8v2zm42.8-1c0 10.234.999 17.99 3.072 23.171l1.857-.742c-1.928-4.819-2.929-12.263-2.929-22.429h-2zm3.085 23.203c2.426 5.515 7.916 8.097 15.915 8.097v-2c-7.601 0-12.111-2.418-14.085-6.903l-1.83.806zm15.915 8.097c5.024 0 9.026-1.58 11.856-4.845l-1.512-1.31c-2.37 2.735-5.768 4.155-10.344 4.155v2zm11.856-4.845c2.794-3.224 4.627-8.563 5.635-15.817l-1.981-.276c-.993 7.146-2.76 12.007-5.166 14.783l1.512 1.31zm5.635-15.817c1.009-7.266 1.509-17.018 1.509-29.238h-2c0 12.18-.5 21.828-1.49 28.962l1.981.276zM239.655 165v-24.9h-2V165h2zm-1.844-25.437c-2.68 4.213-6.617 7.492-11.862 9.823l.812 1.828c5.555-2.469 9.819-5.99 12.738-10.577l-1.688-1.074zm-11.862 9.823c-5.261 2.338-11.329 3.617-18.222 3.814l.057 2c7.106-.203 13.438-1.524 18.977-3.986l-.812-1.828zM207.74 153.2c-12.833.198-22.981-2.862-30.551-9.073l-1.268 1.546c8.03 6.589 18.683 9.729 31.849 9.527l-.03-2zm-30.539-9.063c-7.636-6.462-13.14-15.091-16.491-25.932l-1.91.59c3.449 11.159 9.145 20.13 17.109 26.868l1.292-1.526zm-16.486-25.916c-3.169-10.896-4.76-23-4.76-36.321h-2c0 13.479 1.609 25.775 4.84 36.879l1.92-.558zm-4.76-36.321c0-16.52 2.09-30.804 6.246-42.875l-1.891-.65c-4.245 12.33-6.355 26.844-6.355 43.525h2zm6.246-42.875c4.138-12.022 10.92-21.342 20.332-28.009l-1.156-1.632c-9.787 6.933-16.806 16.613-21.067 28.99l1.891.651zm20.324-28.003C192.111 4.37 204.694 1 220.355 1v-2c-15.938 0-28.956 3.43-38.97 10.378l1.14 1.644zM220.355 1c15.262 0 27.546 3.27 36.934 9.724l1.133-1.648C248.609 2.33 235.893-1 220.355-1v2zm36.945 9.732c9.414 6.276 16.288 15.102 20.62 26.523l1.87-.71c-4.468-11.779-11.593-20.953-21.38-27.477l-1.11 1.664zm20.62 26.523c4.348 11.461 6.535 24.936 6.535 40.445h2c0-15.691-2.212-29.416-6.665-41.155l-1.87.71zm6.535 40.445v88.5h2V77.7h-2zm0 88.5c0 15.725-1.792 29.831-5.361 42.325l1.923.55c3.63-12.706 5.438-27 5.438-42.875h-2zm-5.361 42.325c-3.548 12.417-9.936 22.126-19.147 29.181l1.216 1.588c9.589-7.345 16.201-17.436 19.854-30.219l-1.923-.55zm-19.147 29.181c-9.16 7.017-22.313 10.594-39.592 10.594v2c17.521 0 31.169-3.623 40.808-11.006l-1.216-1.588zM220.655 119.8c4.778 0 8.728-1.25 11.751-3.841l-1.302-1.518c-2.577 2.209-6.027 3.359-10.449 3.359v2zm11.755-3.844c3.044-2.639 5.413-5.205 7.077-7.701l-1.664-1.11c-1.536 2.304-3.767 4.738-6.723 7.299l1.31 1.512zm7.245-8.256V69h-2v38.7h2zm0-38.7c0-6.253-.504-12.017-1.518-17.289l-1.964.378c.986 5.128 1.482 10.764 1.482 16.911h2zm-1.518-17.289c-1.022-5.317-2.876-9.682-5.606-13.042l-1.552 1.262c2.471 3.04 4.217 7.075 5.194 12.158l1.964-.378zm-5.606-13.042c-2.83-3.483-6.946-5.169-12.176-5.169v2c4.77 0 8.254 1.514 10.624 4.43l1.552-1.26zM220.355 33.5c-5.252 0-9.372 1.802-12.194 5.492l1.588 1.215c2.378-3.109 5.858-4.707 10.606-4.707v-2zm-12.194 5.492c-2.737 3.579-4.578 8.556-5.593 14.849l1.974.318c.985-6.107 2.744-10.73 5.207-13.952l-1.588-1.215zm-5.598 14.88c-.807 6.256-1.208 13.801-1.208 22.628h2c0-8.773.399-16.228 1.192-22.372l-1.984-.256zM201.355 76.5c0 8.223.301 15.555.904 21.993l1.992-.186c-.597-6.362-.896-13.63-.896-21.807h-2zm.904 21.993c.609 6.491 2.138 11.673 4.664 15.462l1.664-1.11c-2.274-3.411-3.745-8.229-4.336-14.538l-1.992.186zm4.685 15.492c2.85 3.946 7.512 5.815 13.711 5.815v-2c-5.801 0-9.739-1.731-12.089-4.986l-1.622 1.171zM317.478 246l-.971-.239-.305 1.239h1.276v-1zm51-207.6l.971.239.304-1.239h-1.275v1zm-66.3 0h-1v1h1v-1zm0-35.4V2h-1v1h1zm111.6 0h1V2h-1v1zm0 30.6l.972.235.028-.116V33.6h-1zm-51.3 212.4v1h.787l.185-.765-.972-.235zm-44.029.239l51-207.6-1.942-.478-51 207.6 1.942.478zM368.478 37.4h-66.3v2h66.3v-2zm-65.3 1V3h-2v35.4h2zm-1-34.4h111.6V2h-111.6v2zm110.6-1v30.6h2V3h-2zm.028 30.365l-51.3 212.4 1.944.47 51.3-212.4-1.944-.47zM362.478 245h-45v2h45v-2zm175.72-2.6l-.463.886.008.004.008.004.447-.894zm-20.1-19.8l-.89.455.004.009.004.008.882-.472zm0-126.6l-.882-.472-.004.008-.004.008.89.456zm20.1-19.5l.447.894.008-.004.008-.004-.463-.886zm63.6 0l-.463.886.008.004.008.004.447-.894zm20.1 19.5l-.882.472.882-.472zm0 126.6l.882.472-.882-.472zm-20.1 19.8l.447.894.008-.004.008-.004-.463-.886zm-22.8-27l.707.707.017-.017.016-.017-.74-.673zm3.9-8.7l.986.164.002-.008-.988-.156zm0-94.5l.986-.164-.986.164zm-21.3-8.7l.74.673-.74-.673zm-4.2 8.7l-.976-.217-.006.026-.004.027.986.164zm0 94.5l-.988.156.005.031.007.03.976-.217zm4.2 8.7l-.74.673.016.017.017.017.707-.707zm8.4 32.6c-12.284 0-22.723-2.18-31.353-6.494l-.894 1.788c8.97 4.486 19.731 6.706 32.247 6.706v-2zm-31.337-6.486c-8.625-4.509-15.178-10.966-19.681-19.386l-1.764.944c4.697 8.78 11.544 15.523 20.519 20.214l.926-1.772zm-19.673-19.369c-4.308-8.421-6.49-18.954-6.49-31.645h-2c0 12.909 2.218 23.776 6.71 32.555l1.78-.91zm-6.49-31.645v-62.4h-2v62.4h2zm0-62.4c0-12.691 2.182-23.224 6.49-31.644l-1.78-.912c-4.492 8.78-6.71 19.647-6.71 32.556h2zm6.482-31.628c4.501-8.416 11.049-14.77 19.665-19.078l-.894-1.788c-8.984 4.491-15.836 11.138-20.535 19.922l1.764.944zm19.681-19.086c8.626-4.509 19.059-6.786 31.337-6.786v-2c-12.522 0-23.289 2.323-32.263 7.014l.926 1.772zm31.337-6.786c12.278 0 22.711 2.277 31.337 6.786l.926-1.772c-8.974-4.691-19.741-7.014-32.263-7.014v2zm31.353 6.794c8.616 4.309 15.164 10.662 19.665 19.078l1.764-.944c-4.699-8.784-11.551-15.43-20.535-19.922l-.894 1.788zm19.665 19.078c4.502 8.416 6.782 18.943 6.782 31.628h2c0-12.915-2.32-23.788-7.018-32.572l-1.764.944zm6.782 31.628v62.4h2v-62.4h-2zm0 62.4c0 12.685-2.28 23.212-6.782 31.628l1.764.944c4.698-8.784 7.018-19.657 7.018-32.572h-2zm-6.782 31.628c-4.503 8.42-11.056 14.877-19.681 19.386l.926 1.772c8.975-4.691 15.822-11.434 20.519-20.214l-1.764-.944zm-19.665 19.378c-8.63 4.314-19.069 6.494-31.353 6.494v2c12.516 0 23.277-2.22 32.247-6.706l-.894-1.788zM570.298 219.4c3.971 0 7.162-1.048 9.407-3.293l-1.414-1.414c-1.755 1.755-4.364 2.707-7.993 2.707v2zm9.44-3.327c2.156-2.372 3.522-5.462 4.146-9.209l-1.972-.328c-.576 3.453-1.81 6.163-3.654 8.191l1.48 1.346zm4.148-9.217c.61-3.862.912-8.216.912-13.056h-2c0 4.76-.298 9.006-.888 12.744l1.976.312zm.912-13.056v-68.7h-2v68.7h2zm0-68.7c0-5.036-.302-9.394-.914-13.064l-1.972.328c.588 3.53.886 7.772.886 12.736h2zm-.914-13.064c-.624-3.747-1.99-6.837-4.146-9.209l-1.48 1.346c1.844 2.028 3.078 4.738 3.654 8.191l1.972-.328zm-4.146-9.209c-2.239-2.463-5.442-3.627-9.44-3.627v2c3.602 0 6.199 1.036 7.96 2.973l1.48-1.346zm-9.44-3.627c-3.998 0-7.201 1.164-9.44 3.627l1.48 1.346c1.761-1.937 4.358-2.973 7.96-2.973v-2zm-9.44 3.627c-2.142 2.357-3.607 5.427-4.436 9.156l1.952.434c.771-3.471 2.106-6.201 3.964-8.244l-1.48-1.346zm-4.446 9.209c-.612 3.67-.914 8.028-.914 13.064h2c0-4.964.298-9.206.886-12.736l-1.972-.328zm-.914 13.064v68.7h2v-68.7h-2zm0 68.7c0 4.84.302 9.194.912 13.056l1.976-.312c-.59-3.738-.888-7.984-.888-12.744h-2zm.924 13.117c.829 3.729 2.294 6.799 4.436 9.156l1.48-1.346c-1.858-2.043-3.193-4.773-3.964-8.244l-1.952.434zm4.469 9.19c2.245 2.245 5.436 3.293 9.407 3.293v-2c-3.629 0-6.238-.952-7.993-2.707l-1.414 1.414zM718.709 244.5l.447-.894-.447.894zm-17.1-11.7l.664-.747-1.664-1.48v2.227h1zm0 13.2v1h1v-1h-1zm-45.3 0h-1v1h1v-1zm0-243V2h-1v1h1zm45.3 0h1V2h-1v1zm0 82.5h-1v2.233l1.666-1.487-.666-.746zm17.7-11.7l.412.911-.412-.911zm36.9.6l-.555.832.013.008.012.008.53-.848zm11.7 12.3l.866-.5-.866.5zm6.3 17.4l.983-.184-.983.184zm-2.4 117l-.951-.31.951.31zm-12.9 20.4l-.653-.757-.007.005-.006.006.666.746zm-33.3-26.1l.74.673.014-.016.014-.017-.768-.64zm3.9-9.3l-.979-.206-.005.025-.004.025.988.156zm0-96.6l-.973.229.973-.229zm-4.2-8.1l-.774.633.032.039.035.035.707-.707zm-16.2-1.2l.419.908.028-.013.027-.015-.474-.88zm-7.5 4.5l-.6-.8-.4.3v.5h1zm0 108.6h-1v.535l.445.297.555-.832zm7.5 3.9l-.359.933.359-.933zm28.2 30.8c-6.237 0-12.285-1.46-18.153-4.394l-.894 1.788c6.132 3.066 12.484 4.606 19.047 4.606v-2zm-18.153-4.394c-5.915-2.958-11.543-6.807-16.883-11.553l-1.328 1.494c5.46 4.854 11.232 8.805 17.317 11.847l.894-1.788zM700.609 232.8V246h2v-13.2h-2zm1 12.2h-45.3v2h45.3v-2zm-44.3 1V3h-2v243h2zm-1-242h45.3V2h-45.3v2zm44.3-1v82.5h2V3h-2zm1.666 83.246c5.532-4.94 11.347-8.78 17.446-11.535l-.824-1.822c-6.301 2.846-12.286 6.804-17.954 11.865l1.332 1.492zm17.446-11.535c6.074-2.743 12.334-4.111 18.788-4.111v-2c-6.746 0-13.286 1.432-19.612 4.289l.824 1.822zm18.788-4.111c6.845 0 12.542 1.563 17.145 4.632l1.11-1.664c-4.997-3.331-11.1-4.968-18.255-4.968v2zm17.17 4.648c4.653 2.908 8.441 6.885 11.364 11.952l1.732-1c-3.077-5.333-7.089-9.556-12.036-12.648l-1.06 1.696zM767.043 87.2c2.939 5.094 5.002 10.786 6.183 17.084l1.966-.368c-1.219-6.502-3.356-12.41-6.417-17.716l-1.732 1zm6.183 17.084a104.544 104.544 0 011.783 19.316h2c0-6.661-.606-13.223-1.817-19.684l-1.966.368zm1.783 19.316v67.8h2v-67.8h-2zm0 67.8c0 11.119-1.39 20.911-4.151 29.39l1.902.62c2.839-8.721 4.249-18.729 4.249-30.01h-2zm-4.151 29.39c-2.754 8.459-6.964 15.092-12.602 19.953l1.306 1.514c5.962-5.139 10.352-12.106 13.198-20.847l-1.902-.62zm-12.615 19.964c-5.386 4.809-12.335 7.246-20.934 7.246v2c9.001 0 16.452-2.563 22.266-7.754l-1.332-1.492zM717.209 219.7c3.817 0 6.911-1.176 9.14-3.627l-1.48-1.346c-1.771 1.949-4.277 2.973-7.66 2.973v2zm9.168-3.66c2.14-2.567 3.498-5.847 4.12-9.784l-1.976-.312c-.578 3.663-1.82 6.583-3.68 8.816l1.536 1.28zm4.111-9.734c.816-3.879 1.221-8.149 1.221-12.806h-2c0 4.543-.395 8.673-1.179 12.394l1.958.412zm1.221-12.806v-72.6h-2v72.6h2zm0-72.6c0-4.262-.406-8.141-1.227-11.629l-1.946.458c.779 3.312 1.173 7.033 1.173 11.171h2zm-1.227-11.629c-.832-3.539-2.307-6.419-4.466-8.578l-1.414 1.414c1.841 1.841 3.166 4.361 3.934 7.622l1.946-.458zm-4.399-8.504c-2.039-2.492-5.061-3.667-8.874-3.667v2c3.387 0 5.765 1.025 7.326 2.933l1.548-1.266zm-8.874-3.667c-2.975 0-5.837.746-8.574 2.22l.948 1.76c2.463-1.326 5.001-1.98 7.626-1.98v-2zm-8.519 2.192a42.442 42.442 0 00-7.681 4.608l1.2 1.6a40.383 40.383 0 017.319-4.392l-.838-1.816zm-8.081 5.408v108.6h2V104.7h-2zm.445 109.432a39.255 39.255 0 007.696 4.001l.718-1.866a37.246 37.246 0 01-7.304-3.799l-1.11 1.664zm7.696 4.001a23.36 23.36 0 008.459 1.567v-2a21.39 21.39 0 01-7.741-1.433l-.718 1.866zM796.758 297l-.148.989.007.001.141-.99zm-11.4-2.7h-1v.721l.684.228.316-.949zm0-32.4l.165-.986-1.165-.194v1.18h1zm4.2.6l-.124.992.124-.992zm12.3-1.5l-.447-.894-.034.017-.033.02.514.857zm4.5-5.1l-.894-.447-.016.031-.013.031.923.385zm1.8-183.3v-1h-1v1h1zm45.3 0h1v-1h-1v1zm-11.4 212.7l-.741-.671-.009.01.75.661zm-33.9-241.2h-1v1h1v-1zm0-33.9v-1h-1v1h1zm45.3 0h1v-1h-1v1zm0 33.9v1h1v-1h-1zm-44.1 252.8a88.03 88.03 0 01-12.458-.89l-.283 1.98a89.92 89.92 0 0012.741.91v-2zm-12.451-.889c-3.947-.592-7.691-1.479-11.233-2.66l-.632 1.898c3.658 1.219 7.515 2.132 11.568 2.74l.297-1.978zm-10.549-1.711v-32.4h-2v32.4h2zm-1.164-31.414c1.217.203 2.631.405 4.24.606l.248-1.984c-1.59-.199-2.976-.397-4.159-.594l-.329 1.972zm4.24.606c1.635.205 3.177.308 4.624.308v-2c-1.353 0-2.811-.097-4.376-.292l-.248 1.984zm4.624.308c3.317 0 6.112-.621 8.315-1.943l-1.029-1.714c-1.797 1.078-4.202 1.657-7.286 1.657v2zm8.247-1.906c2.249-1.124 3.9-3.026 4.976-5.609l-1.846-.77c-.923 2.217-2.273 3.715-4.024 4.591l.894 1.788zm4.948-5.547c1.289-2.578 1.905-5.742 1.905-9.447h-2c0 3.495-.583 6.331-1.694 8.553l1.789.894zm1.905-9.447V72.6h-2v174.3h2zm-1-173.3h45.3v-2h-45.3v2zm44.3-1v179.7h2V72.6h-2zm0 179.7c0 13.404-3.74 24.148-11.141 32.329l1.483 1.342c7.798-8.619 11.658-19.875 11.658-33.671h-2zm-11.15 32.339c-7.159 8.126-17.749 12.261-31.95 12.261v2c14.6 0 25.81-4.265 33.451-12.939l-1.501-1.322zM809.158 44.1V10.2h-2v33.9h2zm-1-32.9h45.3v-2h-45.3v2zm44.3-1v33.9h2V10.2h-2zm1 32.9h-45.3v2h45.3v-2zm53.281 199l-.488.873.008.005.008.004.472-.882zm-19.5-20.7l-.903.431.004.008.899-.439zm0-124.2l.894.447.004-.008-.898-.439zm19.8-20.4l.463.886.008-.004.008-.004-.479-.878zm81.9 21l-.925.382.004.008.004.009.917-.399zm6 63.9v1h1v-1h-1zm-69.6 0v-1h-1v1h1zm1.5 45.9l-.955.298.009.027.009.026.937-.351zm4.8 6.9l-.574.819.029.02.03.018.515-.857zm14.7 0l.514.857.011-.006.012-.007-.537-.844zm6.3-33.9v-1h-1v1h1zm42 0h1v-1h-1v1zm-14.4 54.6l-.692-.722.692.722zm-54.9-95.1h-1v1h1v-1zm27.3 0v1h1v-1h-1zm-1.5-29.1l-.955.298.003.009.003.009.949-.316zm-4.8-6.6l-.574.819.046.032.049.027.479-.878zm-15.3 0l-.574-.819-.02.014-.02.016.614.789zm-4.2 7.5l.959.282.002-.007.002-.007-.963-.268zm12 136.1c-12.685 0-23.212-2.28-31.629-6.782l-.943 1.764c8.783 4.698 19.657 7.018 32.572 7.018v-2zm-31.613-6.773c-8.419-4.699-14.777-11.446-19.089-20.266l-1.797.878c4.488 9.18 11.13 16.233 19.911 21.134l.975-1.746zm-19.085-20.258c-4.321-9.036-6.502-19.881-6.502-32.569h-2c0 12.912 2.219 24.067 6.698 33.431l1.804-.862zm-6.502-32.569v-58.2h-2v58.2h2zm0-58.2c0-13.095 2.183-23.931 6.494-32.553l-1.789-.894c-4.489 8.978-6.705 20.142-6.705 33.447h2zm6.498-32.56c4.307-8.811 10.756-15.454 19.365-19.954l-.927-1.772c-8.99 4.7-15.742 11.657-20.235 20.847l1.797.878zm19.381-19.962c8.622-4.703 19.049-7.078 31.321-7.078v-2c-12.529 0-23.301 2.425-32.279 7.322l.958 1.756zm31.321-7.078c13.088 0 23.596 2.381 31.594 7.063l1.011-1.726c-8.402-4.918-19.294-7.337-32.605-7.337v2zm31.594 7.063c8.003 4.684 13.861 11.51 17.581 20.519l1.849-.764c-3.879-9.391-10.021-16.565-18.419-21.481l-1.011 1.726zm17.589 20.536c3.931 9.041 5.917 20.097 5.917 33.201h2c0-13.296-2.014-24.64-6.083-33.999l-1.834.798zm5.917 33.201v30.3h2v-30.3h-2zm1 29.3h-69.6v2h69.6v-2zm-70.6 1v33.6h2v-33.6h-2zm0 33.6c0 5.057.504 9.267 1.545 12.598l1.909-.596c-.959-3.069-1.454-7.059-1.454-12.002h-2zm1.563 12.651c1.244 3.316 2.944 5.815 5.163 7.368l1.147-1.638c-1.78-1.247-3.281-3.348-4.437-6.432l-1.873.702zm5.222 7.406c2.194 1.317 4.884 1.943 8.015 1.943v-2c-2.87 0-5.18-.574-6.986-1.657l-1.029 1.714zm8.015 1.943c2.944 0 5.53-.632 7.714-1.943l-1.029-1.714c-1.816 1.089-4.03 1.657-6.685 1.657v2zm7.737-1.956c2.413-1.536 4.141-3.829 5.204-6.808l-1.883-.672c-.936 2.621-2.409 4.528-4.395 5.792l1.074 1.688zm5.204-6.808c1.054-2.95 1.559-6.777 1.559-11.436h-2c0 4.541-.496 8.114-1.442 10.764l1.883.672zm1.559-11.436v-16.5h-2v16.5h2zm-1-15.5h42v-2h-42v2zm41-1V195h2v-14.4h-2zm0 14.4c0 17.419-4.747 30.522-14.092 39.478l1.384 1.444c9.854-9.444 14.708-23.141 14.708-40.922h-2zm-14.092 39.478C970.191 243.444 956.674 248 938.839 248v2c18.164 0 32.248-4.644 42.092-14.078l-1.384-1.444zM925.339 141.1h27.3v-2h-27.3v2zm28.3-1V123h-2v17.1h2zm0-17.1c0-5.053-.504-9.173-1.552-12.316l-1.897.632c.952 2.857 1.449 6.737 1.449 11.684h2zm-1.546-12.298c-1.05-3.362-2.779-5.818-5.275-7.18l-.958 1.756c1.904 1.038 3.375 2.982 4.324 6.02l1.909-.596zm-5.181-7.121c-2.213-1.55-5.031-2.281-8.373-2.281v2c3.058 0 5.44.669 7.226 1.919l1.147-1.638zm-8.373-2.281c-3.158 0-5.871.738-8.074 2.281l1.147 1.638c1.797-1.258 4.084-1.919 6.927-1.919v-2zm-8.114 2.311c-2.048 1.592-3.526 4.335-4.55 8.021l1.927.536c.976-3.514 2.298-5.771 3.851-6.979l-1.228-1.578zm-4.546 8.007c-1.04 3.537-1.54 8.55-1.54 14.982h2c0-6.368.499-11.155 1.459-14.418l-1.919-.564zm-1.54 14.982v13.5h2v-13.5h-2zM1022.23 246h-1v1h1v-1zm0-243V2h-1v1h1zm45 0h1V2h-1v1zm0 136.8h-1v3.385l1.84-2.842-.84-.543zm43.5-67.2v-1h-.55l-.29.457.84.543zm50.4 0l.84.538.98-1.538h-1.82v1zm-45 70.5l-.85-.538-.28.447.21.487.92-.396zm44.4 102.9v1h1.52l-.6-1.396-.92.396zm-48.9 0l-.94.346.24.654h.7v-1zm-30.9-83.7l.94-.346-.63-1.707-1.11 1.447.8.606zm-13.5 17.7l-.8-.606-.2.268V180h1zm0 66v1h1v-1h-1zm-44 0V3h-2v243h2zm-1-242h45V2h-45v2zm44-1v136.8h2V3h-2zm1.84 137.343l43.5-67.2-1.68-1.086-43.5 67.2 1.68 1.086zm42.66-66.743h50.4v-2h-50.4v2zm49.55-1.538l-45 70.5 1.69 1.076 45-70.5-1.69-1.076zm-45.07 71.434l44.4 102.9 1.84-.792-44.4-102.9-1.84.792zM1160.53 245h-48.9v2h48.9v-2zm-47.96.654l-30.9-83.7-1.88.692 30.9 83.7 1.88-.692zm-32.64-83.96l-13.5 17.7 1.59 1.212 13.5-17.7-1.59-1.212zM1066.23 180v66h2v-66h-2zm1 65h-45v2h45v-2zm133.68-2.6l-.49.873.01.005.01.006.47-.884zm-14.1-16.2l.93-.348-.93.348zm-3.9-123.9h1v-1h-1v1zm-17.1 0h-1v1h1v-1zm0-29.7v-1h-1v1h1zm17.1 0v1h1v-1h-1zm0-52.5v-1h-1v1h1zm45.9 0h1v-1h-1v1zm0 52.5h-1v1h1v-1zm25.2 0h1v-1h-1v1zm0 29.7v1h1v-1h-1zm-25.2 0v-1h-1v1h1zm3.9 105.9l-.68.735.03.027.03.024.62-.786zm18.3 3l.09.996.04-.004.05-.008-.18-.984zm6-.9h1v-1.117l-1.11.123.11.994zm0 35.4l.14.99.86-.123v-.867h-1zm-12 1.2l-.08-.997-.02.001-.02.003.12.993zm-15.9-.1c-11.92 0-21.14-1.791-27.73-5.284l-.94 1.768c7 3.707 16.59 5.516 28.67 5.516v-2zm-27.71-5.273c-6.61-3.689-11.14-8.908-13.66-15.675l-1.87.696c2.69 7.233 7.55 12.814 14.55 16.725l.98-1.746zm-13.66-15.675c-2.54-6.858-3.83-15.233-3.83-25.152h-2c0 10.081 1.31 18.706 3.96 25.848l1.87-.696zm-3.83-25.152v-98.4h-2v98.4h2zm-1-99.4h-17.1v2h17.1v-2zm-16.1 1V72.6h-2v29.7h2zm-1-28.7h17.1v-2h-17.1v2zm18.1-1V20.1h-2v52.5h2zm-1-51.5h45.9v-2h-45.9v2zm44.9-1v52.5h2V20.1h-2zm1 53.5h25.2v-2h-25.2v2zm24.2-1v29.7h2V72.6h-2zm1 28.7h-25.2v2h25.2v-2zm-26.2 1v94.2h2v-94.2h-2zm0 94.2c0 5.533 1.33 9.765 4.22 12.435l1.36-1.47c-2.31-2.13-3.58-5.698-3.58-10.965h-2zm4.28 12.486c3.03 2.38 7.07 3.514 12.02 3.514v-2c-4.66 0-8.21-1.066-10.78-3.086l-1.24 1.572zm12.02 3.514c2.43 0 4.76-.101 6.99-.304l-.18-1.992c-2.17.197-4.44.296-6.81.296v2zm7.08-.316c2.18-.397 4.16-.693 5.93-.89l-.22-1.988c-1.83.203-3.85.507-6.07.91l.36 1.968zm4.82-1.884v35.4h2v-35.4h-2zm.86 34.41c-2.77.395-6.75.793-11.94 1.193l.15 1.994c5.21-.4 9.24-.802 12.07-1.207l-.28-1.98zm-11.98 1.197c-5.16.595-10.42.893-15.78.893v2c5.43 0 10.77-.302 16.01-.907l-.23-1.986z" fill="#E9E9E9"/></svg>