<svg width="1899" height="331" fill="none" xmlns="http://www.w3.org/2000/svg"><path d="M39.8 318.6l-.546.838.008.005.538-.843zm-28-33.2l-.911.412.911-.412zM.6 236.2l-.26-.965-.785.211.047.811.998-.057zm40-10.8l.998-.07-.085-1.212-1.174.317.261.965zm5.2 33.2l-.97.243.003.011.003.011.964-.265zm14 26.4l-.735.678.007.007.007.008.721-.693zm53.2.4l-.736-.677-.001.001.737.676zm-.8-63.6l-.806.592.005.006.004.006.797-.604zM87 194.6l.667-.745-.005-.005-.662.75zm-54.4-48l.662-.75-.004-.003-.658.753zM9 116.2l-.911.412.004.008.907-.42zm12.8-96.4l.693.721-.693-.721zM111 5.4l-.34.94.016.006.016.005L111 5.4zm24.4 15.2l-.735.678.007.008.007.007.721-.693zM151 47l-.944.33.005.015.006.014L151 47zm8 36.8l.261.965.814-.22-.079-.839-.996.094zm-38.4 10.4l-.997.075.09 1.207 1.168-.317-.261-.965zM115.8 65l-.967.256.002.007.965-.263zM103 43.4l-.69.723.016.016.018.016.656-.755zm-52 .8l.691.723v-.001L51 44.2zM46.6 95l-.894.447.007.015.008.014L46.6 95zM63 114.6l-.666.746.007.006.659-.752zm54.8 48l-.659.752.003.003.656-.755zm32.4 38.4l-.848.53.004.007.844-.537zm4 94l.865.503.004-.009-.869-.494zm-27.6 26.4l-.463-.886-.009.004.472.882zm-40 8.2c-18.524 0-33.926-3.969-46.262-11.843l-1.076 1.686c12.73 8.126 28.53 12.157 47.338 12.157v-2zm-46.254-11.838c-12.097-7.889-21.309-18.804-27.635-32.775l-1.822.825c6.474 14.297 15.929 25.515 28.365 33.626l1.092-1.676zm-27.635-32.775c-6.34-14-10.052-30.276-11.113-48.844l-1.996.114c1.072 18.765 4.827 35.29 11.287 49.555l1.822-.825zM.861 237.165l40-10.8-.522-1.93-40 10.8.522 1.93zm38.741-11.695c.804 11.522 2.546 22.647 5.228 33.373l1.94-.486c-2.652-10.607-4.376-21.616-5.172-33.027l-1.996.14zm5.234 33.395c2.968 10.794 7.704 19.744 14.23 26.813l1.469-1.356c-6.275-6.798-10.872-15.448-13.77-25.987l-1.93.53zm14.243 26.828C65.71 292.601 74.93 296 86.6 296v-2c-11.264 0-19.91-3.268-26.079-9.693l-1.442 1.386zM86.6 296c11.91 0 21.021-3.252 27.137-9.924l-1.474-1.352C106.645 290.852 98.156 294 86.6 294v2zm27.136-9.923c6.356-6.908 9.464-16.65 9.464-29.077h-2c0 12.106-3.025 21.298-8.936 27.723l1.472 1.354zM123.2 257c0-14.813-3.367-26.781-10.203-35.804l-1.594 1.208c6.498 8.577 9.797 20.076 9.797 34.596h2zm-10.194-35.792c-6.715-9.133-15.165-18.25-25.34-27.353l-1.333 1.49c10.092 9.03 18.443 18.046 25.061 27.047l1.612-1.184zM87.662 193.85l-54.4-48-1.324 1.5 54.4 48 1.324-1.5zm-54.404-48.003c-10.58-9.257-18.352-19.281-23.35-30.067l-1.815.84c5.135 11.081 13.095 21.323 23.849 30.733l1.316-1.506zM9.911 115.788C4.92 104.752 2.4 91.168 2.4 75h-2c0 16.365 2.548 30.248 7.689 41.612l1.822-.824zM2.4 75c0-23.536 6.737-41.647 20.093-54.479l-1.386-1.442C7.263 32.38.4 51.069.4 75h2zm20.093-54.479C35.863 7.675 54.125 1.2 77.4 1.2v-2c-23.659 0-42.464 6.592-56.293 19.879l1.386 1.442zM77.4 1.2c12.712 0 23.793 1.722 33.26 5.14l.68-1.88C101.607.944 90.288-.8 77.4-.8v2zm33.292 5.151c9.72 3.153 17.701 8.132 23.973 14.927l1.47-1.356c-6.528-7.072-14.813-12.226-24.826-15.473l-.617 1.902zm23.987 14.942c6.551 6.813 11.683 15.483 15.377 26.037l1.888-.66c-3.773-10.78-9.041-19.71-15.823-26.763l-1.442 1.386zm15.388 26.066c3.959 10.295 6.61 22.469 7.937 36.535l1.992-.188c-1.34-14.2-4.022-26.56-8.063-37.065l-1.866.718zm8.672 35.476l-38.4 10.4.522 1.93 38.4-10.4-.522-1.93zm-37.142 11.29c-.804-10.72-2.413-20.517-4.832-29.388l-1.93.526c2.381 8.729 3.972 18.398 4.768 29.012l1.994-.15zm-4.83-29.38c-2.443-9.23-6.804-16.616-13.111-22.1l-1.312 1.51c5.96 5.182 10.132 12.197 12.489 21.1l1.934-.51zM103.69 42.676C97.577 36.84 88.758 34 77.4 34v2c11.042 0 19.29 2.76 24.91 8.123l1.38-1.446zM77.4 34c-11.387 0-20.46 3.123-27.092 9.478l1.384 1.444C57.86 39.011 66.387 36 77.4 36v-2zm-27.091 9.477C43.912 49.596 40.8 58.701 40.8 70.6h2c0-11.568 3.021-20.062 8.891-25.677l-1.382-1.446zM40.8 70.6c0 9.966 1.615 18.266 4.906 24.847l1.788-.894C44.385 88.334 42.8 80.367 42.8 70.6h-2zm4.92 24.876c3.539 6.532 9.091 13.153 16.614 19.87l1.332-1.492c-7.41-6.617-12.791-13.062-16.187-19.33l-1.758.952zm16.621 19.876l54.8 48 1.318-1.504-54.8-48-1.318 1.504zm54.803 48.003c12.186 10.596 22.923 23.319 32.208 38.175l1.696-1.06c-9.381-15.01-20.244-27.888-32.592-38.625l-1.312 1.51zm32.212 38.182c9.216 14.481 13.844 31.754 13.844 51.863h2c0-20.425-4.705-38.085-14.156-52.937l-1.688 1.074zM163.2 253.4c0 15.859-3.303 29.549-9.869 41.106l1.738.988c6.767-11.91 10.131-25.953 10.131-42.094h-2zm-9.865 41.097c-6.571 11.304-15.633 19.971-27.198 26.017l.926 1.772c11.901-6.221 21.24-15.154 28.002-26.783l-1.73-1.006zm-27.207 26.021c-11.298 6.044-24.465 9.082-39.528 9.082v2c15.337 0 28.837-3.095 40.472-9.318l-.944-1.764zM255.663 327l-.976.218.174.782h.802v-1zM183.262 3V2h-1.248l.273 1.218.975-.218zm42.401 0l.977-.21-.169-.79h-.808v1zm51.199 238.8l-.977.21 1.957-.01-.98-.2zM325.663 3V2h-.817l-.163.8.98.2zm41.2 0l.976.216.269-1.216h-1.245v1zm-71.6 324v1h.803l.173-.784-.976-.216zm-38.625-.218l-72.4-324-1.951.436 72.4 324 1.951-.436zM183.262 4h42.401V2h-42.401v2zm41.423-.79l51.2 238.8 1.955-.42-51.2-238.8-1.955.42zM277.842 242l48.8-238.8-1.959-.4-48.8 238.8 1.959.4zM325.663 4h41.2V2h-41.2v2zm40.223-1.216l-71.6 324 1.953.432 71.6-324-1.953-.432zM295.263 326h-39.6v2h39.6v-2zm105.953 1h-1v1h1v-1zm0-324V2h-1v1h1zm125.6 0h1V2h-1v1zm0 33.6v1h1v-1h-1zm-80.4 0v-1h-1v1h1zm0 107.2h-1v1h1v-1zm65.2 0h1v-1h-1v1zm0 32v1h1v-1h-1zm-65.2 0v-1h-1v1h1zm0 118.8h-1v1h1v-1zm81.2 0h1v-1h-1v1zm0 32.4v1h1v-1h-1zm-125.4 0V3h-2v324h2zm-1-323h125.6V2h-125.6v2zm124.6-1v33.6h2V3h-2zm1 32.6h-80.4v2h80.4v-2zm-81.4 1v107.2h2V36.6h-2zm1 108.2h65.2v-2h-65.2v2zm64.2-1v32h2v-32h-2zm1 31h-65.2v2h65.2v-2zm-66.2 1v118.8h2V175.8h-2zm1 119.8h81.2v-2h-81.2v2zm80.2-1V327h2v-32.4h-2zm1 31.4h-126.4v2h126.4v-2zm36.49 1h-1v1h1v-1zm0-324V2h-1v1h1zm30.8 0l.92-.393-.26-.607h-.66v1zm92 215.2l-.919.393 1.919-.393h-1zm0-215.2V2h-1v1h1zm37.6 0h1V2h-1v1zm0 324v1h1v-1h-1zm-28.8 0l-.921.388.257.612h.664v-1zm-93.2-221.2l.922-.388-1.922.388h1zm0 221.2v1h1v-1h-1zm-37.4 0V3h-2v324h2zm-1-323h30.8V2h-30.8v2zm29.881-.607l92 215.2 1.839-.786-92-215.2-1.839.786zM687.906 218.2V3h-2v215.2h2zm-1-214.2h37.6V2h-37.6v2zm36.6-1v324h2V3h-2zm1 323h-28.8v2h28.8v-2zm-27.878.612l-93.2-221.2-1.843.776 93.2 221.2 1.843-.776zM601.506 105.8V327h2V105.8h-2zm1 220.2h-38.4v2h38.4v-2zm202.528-7.4l-.546.838.008.005.538-.843zm-28-33.2l-.911.412.911-.412zm-11.2-49.2l-.26-.965-.784.211.046.811.998-.057zm40-10.8l.998-.07-.085-1.212-1.173.317.26.965zm5.2 33.2l-.97.243.003.011.003.011.964-.265zm14 26.4l-.734.678.006.007.007.008.721-.693zm53.2.4l-.736-.677-.001.001.737.676zm-.8-63.6l-.805.592.004.006.004.006.797-.604zm-25.2-27.2l.667-.745-.005-.005-.662.75zm-54.4-48l.662-.75-.003-.003-.659.753zm-23.6-30.4l-.911.412.004.008.907-.42zm12.8-96.4l.693.721-.693-.721zm89.2-14.4l-.339.94.015.006.016.005.308-.951zm24.4 15.2l-.734.678.006.008.008.007.72-.693zm15.6 26.4l-.943.33.005.015.005.014.933-.359zm8 36.8l.262.965.813-.22-.079-.839-.996.094zm-38.4 10.4l-.997.075.091 1.207 1.168-.317-.262-.965zm-4.8-29.2l-.966.256.002.007.964-.263zm-12.8-21.6l-.69.723.017.016.017.016.656-.755zm-52 .8l.692.723v-.001l-.692-.722zm-4.4 50.8l-.894.447.007.015.008.014.879-.476zm16.4 19.6l-.666.746.008.006.658-.752zm54.8 48l-.659.752.003.003.656-.755zm32.4 38.4l-.848.53.005.007.843-.537zm4 94l.865.503.005-.009-.87-.494zm-27.6 26.4l-.463-.886-.008.004.471.882zm-40 8.2c-18.524 0-33.925-3.969-46.262-11.843l-1.076 1.686c12.731 8.126 28.53 12.157 47.338 12.157v-2zm-46.253-11.838c-12.098-7.889-21.309-18.804-27.636-32.775l-1.822.825c6.474 14.297 15.929 25.515 28.365 33.626l1.093-1.676zm-27.636-32.775c-6.34-14-10.051-30.276-11.112-48.844l-1.997.114c1.072 18.765 4.827 35.29 11.287 49.555l1.822-.825zm-11.85-47.822l40-10.8-.521-1.93-40 10.8.521 1.93zm38.742-11.695c.804 11.522 2.546 22.647 5.227 33.373l1.941-.486c-2.652-10.607-4.377-21.616-5.173-33.027l-1.995.14zm5.233 33.395c2.969 10.794 7.704 19.744 14.23 26.813l1.469-1.356c-6.274-6.798-10.872-15.448-13.77-25.987l-1.929.53zm14.243 26.828c6.632 6.908 15.852 10.307 27.521 10.307v-2c-11.264 0-19.91-3.268-26.078-9.693l-1.443 1.386zM851.834 296c11.911 0 21.022-3.252 27.138-9.924l-1.475-1.352C871.88 290.852 863.39 294 851.834 294v2zm27.136-9.923c6.356-6.908 9.464-16.65 9.464-29.077h-2c0 12.106-3.025 21.298-8.936 27.723l1.472 1.354zM888.434 257c0-14.813-3.367-26.781-10.203-35.804l-1.594 1.208c6.498 8.577 9.797 20.076 9.797 34.596h2zm-10.194-35.792c-6.715-9.133-15.164-18.25-25.339-27.353l-1.333 1.49c10.092 9.03 18.442 18.046 25.061 27.047l1.611-1.184zm-25.344-27.358l-54.4-48-1.323 1.5 54.4 48 1.323-1.5zm-54.403-48.003c-10.58-9.257-18.353-19.281-23.351-30.067l-1.815.84c5.135 11.081 13.095 21.323 23.849 30.733l1.317-1.506zm-23.347-30.059c-4.993-11.036-7.512-24.62-7.512-40.788h-2c0 16.365 2.548 30.248 7.689 41.612l1.823-.824zM767.634 75c0-23.536 6.737-41.647 20.093-54.479l-1.385-1.442C772.497 32.38 765.634 51.069 765.634 75h2zm20.093-54.479C801.098 7.675 819.36 1.2 842.634 1.2v-2c-23.658 0-42.463 6.592-56.292 19.879l1.385 1.442zM842.634 1.2c12.713 0 23.793 1.722 33.261 5.14l.679-1.88C866.841.944 855.522-.8 842.634-.8v2zm33.292 5.151c9.72 3.153 17.701 8.132 23.974 14.927l1.469-1.356c-6.527-7.072-14.813-12.226-24.826-15.473l-.617 1.902zm23.988 14.942c6.551 6.813 11.682 15.483 15.377 26.037l1.887-.66c-3.772-10.78-9.041-19.71-15.823-26.763l-1.441 1.386zm15.387 26.066c3.96 10.295 6.611 22.469 7.938 36.535l1.991-.188c-1.34-14.2-4.022-26.56-8.062-37.065l-1.867.718zm8.672 35.476l-38.4 10.4.523 1.93 38.4-10.4-.523-1.93zm-37.141 11.29c-.804-10.72-2.413-20.517-4.833-29.388l-1.929.526c2.38 8.729 3.971 18.398 4.767 29.012l1.995-.15zm-4.831-29.38c-2.443-9.23-6.804-16.616-13.11-22.1l-1.313 1.51c5.96 5.182 10.133 12.197 12.49 21.1l1.933-.51zm-13.076-22.068C862.811 36.84 853.992 34 842.634 34v2c11.042 0 19.29 2.76 24.91 8.123l1.381-1.446zM842.634 34c-11.386 0-20.46 3.123-27.092 9.478l1.384 1.444C823.094 39.011 831.621 36 842.634 36v-2zm-27.091 9.477c-6.396 6.119-9.509 15.224-9.509 27.123h2c0-11.568 3.021-20.062 8.892-25.677l-1.383-1.446zM806.034 70.6c0 9.966 1.615 18.266 4.906 24.847l1.789-.894c-3.11-6.219-4.695-14.186-4.695-23.953h-2zm4.921 24.876c3.538 6.532 9.091 13.153 16.613 19.87l1.332-1.492c-7.41-6.617-12.791-13.062-16.186-19.33l-1.759.952zm16.621 19.876l54.799 48 1.318-1.504-54.8-48-1.317 1.504zm54.802 48.003c12.186 10.596 22.923 23.319 32.208 38.175l1.696-1.06c-9.381-15.01-20.244-27.888-32.591-38.625l-1.313 1.51zm32.213 38.182c9.215 14.481 13.843 31.754 13.843 51.863h2c0-20.425-4.705-38.085-14.156-52.937l-1.687 1.074zm13.843 51.863c0 15.859-3.303 29.549-9.869 41.106l1.739.988c6.767-11.91 10.13-25.953 10.13-42.094h-2zm-9.864 41.097c-6.572 11.304-15.633 19.971-27.199 26.017l.927 1.772c11.901-6.221 21.24-15.154 28.001-26.783l-1.729-1.006zm-27.207 26.021c-11.299 6.044-24.465 9.082-39.529 9.082v2c15.337 0 28.838-3.095 40.472-9.318l-.943-1.764zM964.497 327h-1v1h1v-1zm0-324V2h-1v1h1zm45.203 0h1V2h-1v1zm0 152.8h-1l1.9.438-.9-.438zM1084.1 3V2h-.63l-.27.562.9.438zm42 0l.91.409.63-1.409h-1.54v1zm-64 142.8l-.92-.409-.17.392.16.397.93-.38zm74.4 181.2v1h1.49l-.57-1.38-.92.38zm-44 0l-.93.378.25.622h.68v-1zm-62-152l.92-.378-.79-1.935-1.01 1.829.88.484zm-20.8 37.6l-.88-.484-.12.226v.258h1zm0 114.4v1h1v-1h-1zm-44.203 0V3h-2v324h2zm-1-323h45.203V2h-45.203v2zm44.203-1v152.8h2V3h-2zm1.9 153.238l74.4-152.8-1.8-.876-74.4 152.8 1.8.876zM1084.1 4h42V2h-42v2zm41.08-1.409l-64 142.8 1.83.818 64-142.8-1.83-.818zm-64.01 143.589l74.4 181.2 1.85-.76-74.4-181.2-1.85.76zM1136.5 326h-44v2h44v-2zm-43.08.622l-62-152-1.85.756 62 152 1.85-.756zm-63.8-152.106l-20.8 37.6 1.75.968 20.8-37.6-1.75-.968zM1008.7 212.6V327h2V212.6h-2zm1 113.4h-45.203v2h45.203v-2zm273.85-7.4l-.55.838.01.005.54-.843zm-28-33.2l-.91.412.91-.412zm-11.2-49.2l-.26-.965-.78.211.04.811 1-.057zm40-10.8l1-.07-.09-1.212-1.17.317.26.965zm5.2 33.2l-.97.243v.011l.01.011.96-.265zm14 26.4l-.73.678v.007l.01.008.72-.693zm53.2.4l-.74-.677v.001l.74.676zm-.8-63.6l-.81.592.01.006v.006l.8-.604zm-25.2-27.2l.67-.745-.01-.005-.66.75zm-54.4-48l.66-.75v-.003l-.66.753zm-23.6-30.4l-.91.412v.008l.91-.42zm12.8-96.4l.69.721-.69-.721zm89.2-14.4l-.34.94.02.006.01.005.31-.951zm24.4 15.2l-.73.678v.008l.01.007.72-.693zm15.6 26.4l-.94.33v.015l.01.014.93-.359zm8 36.8l.26.965.81-.22-.07-.839-1 .094zm-38.4 10.4l-1 .075.09 1.207 1.17-.317-.26-.965zm-4.8-29.2l-.97.256.01.007.96-.263zm-12.8-21.6l-.69.723.02.016.01.016.66-.755zm-52 .8l.69.723v-.001l-.69-.722zm-4.4 50.8l-.89.447v.015l.01.014.88-.476zm16.4 19.6l-.67.746.01.006.66-.752zm54.8 48l-.66.752v.003l.66-.755zm32.4 38.4l-.85.53.01.007.84-.537zm4 94l.86.503.01-.009-.87-.494zm-27.6 26.4l-.46-.886-.01.004.47.882zm-40 8.2c-18.52 0-33.93-3.969-46.26-11.843l-1.08 1.686c12.73 8.126 28.53 12.157 47.34 12.157v-2zm-46.25-11.838c-12.1-7.889-21.31-18.804-27.64-32.775l-1.82.825c6.47 14.297 15.93 25.515 28.36 33.626l1.1-1.676zm-27.64-32.775c-6.34-14-10.05-30.276-11.11-48.844l-2 .114c1.07 18.765 4.83 35.29 11.29 49.555l1.82-.825zm-11.85-47.822l40-10.8-.52-1.93-40 10.8.52 1.93zm38.74-11.695c.81 11.522 2.55 22.647 5.23 33.373l1.94-.486c-2.65-10.607-4.38-21.616-5.17-33.027l-2 .14zm5.24 33.395c2.96 10.794 7.7 19.744 14.23 26.813l1.46-1.356c-6.27-6.798-10.87-15.448-13.77-25.987l-1.92.53zm14.24 26.828c6.63 6.908 15.85 10.307 27.52 10.307v-2c-11.26 0-19.91-3.268-26.08-9.693l-1.44 1.386zM1330.35 296c11.91 0 21.02-3.252 27.14-9.924l-1.48-1.352c-5.61 6.128-14.1 9.276-25.66 9.276v2zm27.14-9.923c6.35-6.908 9.46-16.65 9.46-29.077h-2c0 12.106-3.02 21.298-8.94 27.723l1.48 1.354zm9.46-29.077c0-14.813-3.37-26.781-10.2-35.804l-1.6 1.208c6.5 8.577 9.8 20.076 9.8 34.596h2zm-10.19-35.792c-6.72-9.133-15.17-18.25-25.34-27.353l-1.34 1.49c10.1 9.03 18.45 18.046 25.06 27.047l1.62-1.184zm-25.35-27.358l-54.4-48-1.32 1.5 54.4 48 1.32-1.5zm-54.4-48.003c-10.58-9.257-18.35-19.281-23.35-30.067l-1.82.84c5.14 11.081 13.1 21.323 23.85 30.733l1.32-1.506zm-23.35-30.059c-4.99-11.036-7.51-24.62-7.51-40.788h-2c0 16.365 2.55 30.248 7.69 41.612l1.82-.824zM1246.15 75c0-23.536 6.74-41.647 20.09-54.479l-1.38-1.442c-13.85 13.301-20.71 31.99-20.71 55.921h2zm20.09-54.479C1279.61 7.675 1297.88 1.2 1321.15 1.2v-2c-23.66 0-42.46 6.592-56.29 19.879l1.38 1.442zM1321.15 1.2c12.71 0 23.79 1.722 33.26 5.14l.68-1.88c-9.73-3.515-21.05-5.26-33.94-5.26v2zm33.29 5.151c9.72 3.153 17.7 8.132 23.98 14.927l1.46-1.356c-6.52-7.072-14.81-12.226-24.82-15.473l-.62 1.902zm23.99 14.942c6.55 6.813 11.68 15.483 15.38 26.037l1.88-.66c-3.77-10.78-9.04-19.71-15.82-26.763l-1.44 1.386zm15.39 26.066c3.96 10.295 6.61 22.469 7.93 36.535l2-.188c-1.34-14.2-4.03-26.56-8.07-37.065l-1.86.718zm8.67 35.476l-38.4 10.4.52 1.93 38.4-10.4-.52-1.93zm-37.14 11.29c-.81-10.72-2.42-20.517-4.84-29.388l-1.92.526c2.38 8.729 3.97 18.398 4.76 29.012l2-.15zm-4.83-29.38c-2.45-9.23-6.81-16.616-13.11-22.1l-1.32 1.51c5.96 5.182 10.14 12.197 12.49 21.1l1.94-.51zm-13.08-22.068c-6.11-5.836-14.93-8.677-26.29-8.677v2c11.04 0 19.29 2.76 24.91 8.123l1.38-1.446zM1321.15 34c-11.39 0-20.46 3.123-27.09 9.478l1.38 1.444c6.17-5.911 14.7-8.922 25.71-8.922v-2zm-27.09 9.477c-6.4 6.119-9.51 15.224-9.51 27.123h2c0-11.568 3.02-20.062 8.89-25.677l-1.38-1.446zm-9.51 27.123c0 9.966 1.61 18.266 4.91 24.847l1.78-.894c-3.1-6.219-4.69-14.186-4.69-23.953h-2zm4.92 24.876c3.54 6.532 9.09 13.153 16.61 19.87l1.34-1.492c-7.41-6.617-12.8-13.062-16.19-19.33l-1.76.952zm16.62 19.876l54.8 48 1.32-1.504-54.8-48-1.32 1.504zm54.8 48.003c12.19 10.596 22.93 23.319 32.21 38.175l1.7-1.06c-9.38-15.01-20.25-27.888-32.59-38.625l-1.32 1.51zm32.22 38.182c9.21 14.481 13.84 31.754 13.84 51.863h2c0-20.425-4.7-38.085-14.16-52.937l-1.68 1.074zm13.84 51.863c0 15.859-3.3 29.549-9.87 41.106l1.74.988c6.77-11.91 10.13-25.953 10.13-42.094h-2zm-9.86 41.097c-6.58 11.304-15.64 19.971-27.2 26.017l.92 1.772c11.9-6.221 21.24-15.154 28-26.783l-1.72-1.006zm-27.21 26.021c-11.3 6.044-24.47 9.082-39.53 9.082v2c15.34 0 28.84-3.095 40.47-9.318l-.94-1.764zm73.13 6.482h-1v1h1v-1zm0-324V2h-1v1h1zm125.6 0h1V2h-1v1zm0 33.6v1h1v-1h-1zm-80.4 0v-1h-1v1h1zm0 107.2h-1v1h1v-1zm65.2 0h1v-1h-1v1zm0 32v1h1v-1h-1zm-65.2 0v-1h-1v1h1zm0 118.8h-1v1h1v-1zm81.2 0h1v-1h-1v1zm0 32.4v1h1v-1h-1zm-125.4 0V3h-2v324h2zm-1-323h125.6V2h-125.6v2zm124.6-1v33.6h2V3h-2zm1 32.6h-80.4v2h80.4v-2zm-81.4 1v107.2h2V36.6h-2zm1 108.2h65.2v-2h-65.2v2zm64.2-1v32h2v-32h-2zm1 31h-65.2v2h65.2v-2zm-66.2 1v118.8h2V175.8h-2zm1 119.8h81.2v-2h-81.2v2zm80.2-1V327h2v-32.4h-2zm1 31.4h-126.4v2h126.4v-2zm36.49 1h-1v1h1v-1zm0-324V2h-1v1h1zm118.8 8.8l-.38.924.01.003v.003l.37-.93zm31.2 27.6l-.88.462v.011l.01.011.87-.484zm6.4 84l.97.254v-.006l-.97-.248zm-12.8 26l.77.646v-.007l.01-.007-.78-.632zm-23.2 15.2l-.31-.949-.91.302.26.92.96-.273zm46 162.4v1h1.33l-.36-1.273-.97.273zm-43.6 0l-.96.269.2.731h.76v-1zm-42.4-152l.97-.269-.21-.731h-.76v1zm-35.2 0v-1h-1v1h1zm0 152v1h1v-1h-1zm0-184.4h-1v1h1v-1zm66-21.2l.9.435-.9-.435zm-4.8-73.2l-.77.63v.007l.01.006.76-.643zm-61.2-12.8v-1h-1v1h1zM1606.9 327V3h-2v324h2zm-1-323h65.2V2h-65.2v2zm65.2 0c21.52 0 39.25 2.924 53.22 8.724l.77-1.848C1710.79 4.943 1692.78 2 1671.1 2v2zm53.23 8.73c13.93 5.516 24.14 14.557 30.69 27.132l1.77-.924c-6.78-13.025-17.37-22.384-31.72-28.068l-.74 1.86zm30.7 27.154c6.82 12.335 10.27 28.683 10.27 49.116h2c0-20.634-3.48-37.352-10.52-50.084l-1.75.968zM1765.3 89c0 12.463-1.32 23.845-3.97 34.152l1.94.496c2.69-10.493 4.03-22.044 4.03-34.648h-2zm-3.96 34.146c-2.64 10.013-6.85 18.546-12.61 25.622l1.55 1.264c5.97-7.324 10.29-16.124 12.99-26.378l-1.93-.508zm-12.6 25.608c-5.74 6.778-13.31 11.749-22.75 14.897l.63 1.898c9.75-3.252 17.65-8.414 23.65-15.503l-1.53-1.292zm-23.4 16.119l46 162.4 1.93-.546-46-162.4-1.93.546zM1772.3 326h-43.6v2h43.6v-2zm-42.63.731l-42.4-152-1.93.538 42.4 152 1.93-.538zM1686.3 174h-35.2v2h35.2v-2zm-36.2 1v152h2V175h-2zm1 151h-45.2v2h45.2v-2zm0-182.4h17.2v-2h-17.2v2zm17.2 0c12.87 0 23.41-1.607 31.57-4.872l-.74-1.856c-7.84 3.135-18.1 4.728-30.83 4.728v2zm31.57-4.872c8.24-3.292 14.29-8.934 18.13-16.893l-1.8-.87c-3.62 7.508-9.3 12.799-17.07 15.907l.74 1.856zm18.13-16.893c3.83-7.928 5.7-18.9 5.7-32.835h-2c0 13.798-1.86 24.426-5.5 31.965l1.8.87zM1723.7 89c0-19.008-3.47-32.903-10.63-41.443l-1.53 1.286c6.7 7.993 10.16 21.299 10.16 40.157h2zm-10.62-41.43c-7.24-8.906-21.38-13.17-41.98-13.17v2c20.48 0 33.8 4.27 40.43 12.43l1.55-1.26zM1671.1 34.4h-20v2h20v-2zm-21 1v107.2h2V35.4h-2zM1869.72 327l-.97.218.17.782h.8v-1zm-72.4-324V2h-1.24l.27 1.218.97-.218zm42.4 0l.98-.21-.17-.79h-.81v1zm51.21 238.8l-.98.21 1.95-.01-.97-.2zM1939.72 3V2h-.81l-.16.8.97.2zm41.21 0l.97.216.27-1.216h-1.24v1zm-71.61 324v1h.81l.17-.784-.98-.216zm-38.62-.218l-72.4-324-1.95.436 72.4 324 1.95-.436zM1797.32 4h42.4V2h-42.4v2zm41.43-.79l51.2 238.8 1.95-.42-51.2-238.8-1.95.42zM1891.9 242l48.8-238.8-1.95-.4-48.8 238.8 1.95.4zm47.82-238h41.21V2h-41.21v2zm40.23-1.216l-71.6 324 1.95.432 71.6-324-1.95-.432zM1909.32 326h-39.6v2h39.6v-2zm108.36 1h-1v1h1v-1zm0-324V2h-1v1h1zm44.4 0h1V2h-1v1zm0 324v1h1v-1h-1zm-43.4 0V3h-2v324h2zm-1-323h44.4V2h-44.4v2zm43.4-1v324h2V3h-2zm1 323h-44.4v2h44.4v-2zm80.02-9.8l-.61.794.01.006.6-.8zm-26.4-38.8l-.96.283v.014l.96-.297zm0-226l-.96-.297v.014l.96.283zm26.4-37.6l.57.818v-.002l-.57-.816zm101.6-2.4l-.54.844.01.005.53-.849zm25.6 32l-.94.343v.016l.94-.359zm8 75.6v1h1v-1h-1zm-42.8 0h-1v1h1v-1zm-2-54.4l-1 .114.01.016v.016l.99-.146zm-9.6-21.6l.69-.725-.69.725zm-54.8.8l.67.74.01-.008.01-.009-.69-.723zM2156.5 67l-.99-.181v.02l.99.161zm1.6 202l-.97.268.01.007.96-.275zm64.4 18l.7.707.01-.009.01-.008-.72-.69zm12-80.4v-1h-1v1h1zm42.8 0h1v-1h-1v1zm-7.2 76.4l.95.306v-.005l-.95-.301zm-24.8 35.2l.57.817.01-.004.01-.004-.59-.809zm-49.6 11.4c-22.81 0-40.44-4.775-53-14.2l-1.2 1.6c13.03 9.775 31.14 14.6 54.2 14.6v-2zm-53-14.194c-12.35-9.464-21.04-22.218-26.05-38.303l-1.91.594c5.13 16.448 14.04 29.561 26.75 39.297l1.21-1.588zm-26.04-38.289c-4.77-16.16-7.16-34.196-7.16-54.117h-2c0 20.079 2.41 38.31 7.24 54.683l1.92-.566zM2109.5 223V108.6h-2V223h2zm0-114.4c0-21.797 2.39-40.764 7.16-56.917l-1.92-.566c-4.84 16.38-7.24 35.547-7.24 57.483h2zm7.15-56.903c5.01-16.08 13.69-28.42 26.02-37.079l-1.15-1.636c-12.73 8.94-21.65 21.668-26.78 38.12l1.91.595zm26.02-37.081C2155.24 5.713 2172.88 1.2 2195.7 1.2v-2c-23.05 0-41.15 4.554-54.18 13.784l1.15 1.632zM2195.7 1.2c20.16 0 35.94 3.716 47.46 11.044l1.07-1.688C2232.28 2.951 2216.07-.8 2195.7-.8v2zm47.47 11.049c11.8 7.343 20.19 17.827 25.19 31.494l1.88-.686c-5.14-14.067-13.82-24.916-26.01-32.506l-1.06 1.698zm25.19 31.51c5.28 13.723 7.94 30.261 7.94 49.641h2c0-19.553-2.68-36.348-8.07-50.359l-1.87.718zm7.94 49.641V119h2V93.4h-2zm1 24.6h-42.8v2h42.8v-2zm-41.8 1V96.2h-2V119h2zm0-22.8c0-12.035-.67-22.619-2.01-31.746l-1.98.292c1.32 9.006 1.99 19.489 1.99 31.454h2zm-2.01-31.713c-1.09-9.501-4.36-16.943-9.9-22.212l-1.38 1.45c5.12 4.864 8.25 11.822 9.29 20.988l1.99-.226zm-9.9-22.212c-5.62-5.332-14.87-7.875-27.49-7.875v2c12.44 0 21.05 2.524 26.11 7.325l1.38-1.45zM2196.1 34.4c-12.92 0-22.56 2.82-28.69 8.677l1.38 1.446c5.6-5.343 14.62-8.123 27.31-8.123v-2zm-28.68 8.66c-6.07 5.52-10.01 13.475-11.91 23.759l1.97.362c1.84-9.983 5.63-17.494 11.29-22.641l-1.35-1.48zm-11.91 23.78c-1.61 9.934-2.41 21.59-2.41 34.96h2c0-13.296.79-24.84 2.38-34.64l-1.97-.32zm-2.41 34.96v128.4h2V101.8h-2zm0 128.4c0 16.308 1.33 29.343 4.03 39.068l1.93-.536c-2.63-9.475-3.96-22.306-3.96-38.532h-2zm4.04 39.075c2.71 9.488 7.22 16.393 13.61 20.563l1.09-1.676c-5.87-3.83-10.16-10.258-12.78-19.437l-1.92.55zm13.61 20.563c6.35 4.141 14.83 6.162 25.35 6.162v-2c-10.29 0-18.34-1.979-24.26-5.838l-1.09 1.676zM2196.1 296c12.37 0 21.49-2.684 27.1-8.293l-1.41-1.414c-5.06 5.057-13.53 7.707-25.69 7.707v2zm27.12-8.31c5.51-5.787 8.91-13.598 10.27-23.352l-1.98-.276c-1.32 9.446-4.58 16.835-9.74 22.248l1.45 1.38zm10.27-23.352c1.34-9.658 2.01-20.906 2.01-33.738h-2c0 12.768-.67 23.92-1.99 33.462l1.98.276zm2.01-33.738v-24h-2v24h2zm-1-23h42.8v-2h-42.8v2zm41.8-1v24h2v-24h-2zm0 24c0 19.654-2.39 37.016-7.16 52.099l1.91.602c4.84-15.317 7.25-32.889 7.25-52.701h-2zm-7.16 52.094c-4.74 14.749-12.88 26.299-24.43 34.697l1.18 1.618c11.91-8.669 20.3-20.585 25.16-35.703l-1.91-.612zm-24.42 34.689c-11.5 8.102-27.8 12.217-49.02 12.217v2c21.44 0 38.21-4.152 50.17-12.583l-1.15-1.634zm75.64 9.617h-1v1h1v-1zm0-324V2h-1v1h1zm125.6 0h1V2h-1v1zm0 33.6v1h1v-1h-1zm-80.4 0v-1h-1v1h1zm0 107.2h-1v1h1v-1zm65.2 0h1v-1h-1v1zm0 32v1h1v-1h-1zm-65.2 0v-1h-1v1h1zm0 118.8h-1v1h1v-1zm81.2 0h1v-1h-1v1zm0 32.4v1h1v-1h-1zm-125.4 0V3h-2v324h2zm-1-323h125.6V2h-125.6v2zm124.6-1v33.6h2V3h-2zm1 32.6h-80.4v2h80.4v-2zm-81.4 1v107.2h2V36.6h-2zm1 108.2h65.2v-2h-65.2v2zm64.2-1v32h2v-32h-2zm1 31h-65.2v2h65.2v-2zm-66.2 1v118.8h2V175.8h-2zm1 119.8h81.2v-2h-81.2v2zm80.2-1V327h2v-32.4h-2zm1 31.4h-126.4v2h126.4v-2z" fill="#D4DFDF"/></svg>